<svg width="178" height="170" viewBox="0 0 178 170" fill="none" xmlns="http://www.w3.org/2000/svg">
<path d="M61.5627 87.3942C61.5627 87.3942 55.0123 139.528 46.6663 140.718C38.3203 141.909 14.4996 122.56 14.4996 122.56L20.2295 110.717C20.2295 110.717 33.8615 116.528 35.6437 116.097C40.1361 114.981 41.0238 83.9307 41.0238 83.9307L61.5627 87.3942Z" fill="white"/>
<path d="M45.8929 141.108C36.9148 141.108 15.2327 123.576 14.2844 122.809C14.2245 122.762 14.1829 122.695 14.167 122.62C14.151 122.545 14.1616 122.467 14.197 122.399L19.9269 110.563C19.966 110.486 20.0328 110.426 20.1138 110.396C20.1948 110.366 20.2842 110.368 20.364 110.401C25.5895 112.634 34.339 116.057 35.563 115.748C38.6768 114.968 40.3245 96.2445 40.6742 83.8903C40.6751 83.8425 40.6864 83.7955 40.7073 83.7526C40.7282 83.7096 40.7582 83.6717 40.7952 83.6415C40.8326 83.6113 40.8758 83.5892 40.922 83.5765C40.9683 83.5638 41.0167 83.5607 41.0642 83.5675L61.6232 87.0713C61.7077 87.0862 61.7833 87.1328 61.8345 87.2015C61.8858 87.2703 61.9088 87.356 61.899 87.4412C61.899 87.5757 60.2244 100.643 57.5747 113.67C53.9834 131.317 50.3316 140.53 46.7134 141.041C46.4421 141.085 46.1678 141.107 45.8929 141.108ZM14.9166 122.453C17.2704 124.342 38.9323 141.485 46.6193 140.382C48.8924 140.059 52.524 135.136 56.9156 113.542C59.3299 101.658 60.9507 89.7547 61.1861 87.6699L41.3332 84.3073C41.192 88.9073 40.1832 115.29 35.7311 116.407C33.9826 116.837 22.7313 112.143 20.3976 111.154L14.9166 122.453Z" fill="#0C071C"/>
<path d="M62.0133 94.1733L96.8634 157.619L119.655 145.561L85.6928 90.1516L62.0133 94.1733Z" fill="white"/>
<path d="M96.8432 157.962C96.7829 157.961 96.7237 157.945 96.6718 157.914C96.6198 157.883 96.5769 157.839 96.5473 157.787L61.6972 94.3343C61.6724 94.2865 61.6595 94.2334 61.6595 94.1796C61.6595 94.1258 61.6724 94.0727 61.6972 94.0249C61.7193 93.9763 61.7528 93.9337 61.795 93.9009C61.8372 93.8681 61.8867 93.846 61.9393 93.8366L85.6255 89.8015C85.6922 89.7917 85.7603 89.8018 85.8213 89.8305C85.8823 89.8592 85.9335 89.9052 85.9685 89.9629L119.924 145.365C119.95 145.404 119.967 145.449 119.974 145.495C119.981 145.542 119.978 145.589 119.965 145.634C119.936 145.722 119.877 145.797 119.796 145.843L97.0046 157.908C96.9569 157.94 96.901 157.959 96.8432 157.962ZM62.5446 94.4217L97.0113 157.168L119.205 145.426L85.5785 90.5211L62.5446 94.4217Z" fill="#0C071C"/>
<path d="M87.9189 43.7408C84.7916 40.1697 73.2041 35.3881 56.6062 33.653C44.6958 32.429 39.2686 33.5319 36.7668 48.5695C34.0767 64.515 43.5929 90.313 43.5929 90.313L104.685 82.5252C104.685 82.5252 96.1707 53.183 87.9189 43.7408Z" fill="#0C071C"/>
<path d="M61.8183 38.0646V32.7248C61.8183 32.7248 69.5321 34.2783 68.5435 25.5826C67.5549 16.8869 64.2393 13.336 63.6677 13.4772L52.9073 16.7053L51.8649 37.1298C51.8649 37.1298 57.1644 45.5161 61.8183 38.0646Z" fill="white"/>
<path d="M57.5074 41.4942C54.2524 41.4942 51.6564 37.5128 51.5488 37.3447C51.5138 37.2832 51.4953 37.2137 51.495 37.1429L52.5374 16.7184C52.5416 16.6492 52.5672 16.5829 52.6105 16.5287C52.6538 16.4746 52.7129 16.4351 52.7795 16.4158L63.5735 13.1877C63.6806 13.1648 63.7914 13.1668 63.8976 13.1936C64.0037 13.2204 64.1022 13.2713 64.1855 13.3424C65.1136 13.9544 67.9651 17.512 68.8932 25.5419C69.216 28.38 68.6645 30.4715 67.2589 31.7628C65.5575 33.3297 63.1229 33.2221 62.1679 33.1078V38.0643C62.1659 38.1254 62.1498 38.1853 62.1209 38.2392C60.7758 40.3845 59.2492 41.4807 57.5477 41.4942H57.5074ZM52.1743 37.069C52.5643 37.6406 54.8643 40.8216 57.5074 40.8216C58.9398 40.8216 60.2647 39.8465 61.4551 37.9634V32.7245C61.4558 32.6747 61.467 32.6257 61.4878 32.5805C61.5087 32.5353 61.5388 32.495 61.5761 32.4622C61.6159 32.4318 61.6615 32.4101 61.7102 32.3985C61.7589 32.3869 61.8094 32.3857 61.8586 32.3949C61.8586 32.3949 64.9051 32.98 66.768 31.2651C68.0054 30.1285 68.4829 28.232 68.187 25.6226C67.2724 17.5524 64.3267 14.062 63.6946 13.8468L53.1965 16.9942L52.1743 37.069Z" fill="#0C071C"/>
<path d="M53.3243 22.4617C52.9544 20.8141 50.4997 20.2357 49.2892 21.4126C48.0786 22.5895 48.3476 24.8223 49.6725 25.8714C50.3627 26.3582 51.1883 26.6162 52.0328 26.609C52.8774 26.6017 53.6984 26.3296 54.3802 25.8311" fill="white"/>
<path d="M51.9254 26.9276C51.0334 26.9424 50.1629 26.653 49.4573 26.1071C49.0739 25.7895 48.7615 25.3949 48.5402 24.9489C48.319 24.5029 48.1938 24.0154 48.1728 23.5179C48.1386 23.078 48.1997 22.6358 48.3517 22.2215C48.5037 21.8072 48.7432 21.4305 49.0538 21.117C49.4284 20.7837 49.8841 20.5547 50.3752 20.4532C50.8662 20.3517 51.3754 20.3812 51.8515 20.5387C52.2859 20.6484 52.6824 20.874 52.9986 21.1914C53.3148 21.5089 53.539 21.9062 53.6471 22.341C53.6564 22.3852 53.6568 22.4307 53.6485 22.4751C53.6402 22.5194 53.6232 22.5617 53.5985 22.5995C53.5739 22.6373 53.542 22.6698 53.5047 22.6953C53.4675 22.7207 53.4256 22.7386 53.3814 22.7479C53.3373 22.7572 53.2917 22.7577 53.2474 22.7493C53.203 22.741 53.1608 22.724 53.123 22.6993C53.0852 22.6747 53.0526 22.6428 53.0272 22.6056C53.0017 22.5683 52.9838 22.5264 52.9746 22.4822C52.8878 22.1649 52.7171 21.8769 52.4803 21.6485C52.2436 21.4201 51.9497 21.2597 51.6295 21.1843C51.2677 21.0607 50.8798 21.0341 50.5045 21.1073C50.1293 21.1804 49.7798 21.3508 49.4909 21.6012C49.2515 21.8438 49.0674 22.1352 48.9513 22.4556C48.8352 22.7761 48.7898 23.1178 48.8184 23.4574C48.8328 23.8598 48.9319 24.2547 49.1092 24.6162C49.2865 24.9778 49.538 25.2979 49.8473 25.5557C50.4838 25.9986 51.2428 26.2316 52.0181 26.2219C52.7935 26.2123 53.5464 25.9605 54.1717 25.5019C54.2457 25.4531 54.3356 25.4344 54.423 25.4493C54.5104 25.4643 54.5888 25.5119 54.6424 25.5826C54.6928 25.6561 54.7125 25.7464 54.6975 25.8343C54.6824 25.9222 54.6337 26.0008 54.5617 26.0533C53.7926 26.6067 52.8728 26.9118 51.9254 26.9276Z" fill="#0C071C"/>
<path d="M60.4867 20.4446C61.146 21.277 61.7611 22.1435 62.3294 23.0405C62.4914 23.2313 62.6082 23.4561 62.6711 23.6984C62.7339 23.9406 62.7413 24.1939 62.6925 24.4394C62.5923 24.6318 62.447 24.7972 62.269 24.9213C62.091 25.0455 61.8856 25.1247 61.6703 25.1522C61.4966 25.2169 61.3072 25.2264 61.1278 25.1794C60.9485 25.1325 60.788 25.0314 60.6683 24.89" fill="white"/>
<path d="M61.334 25.4818C61.154 25.4974 60.9732 25.4637 60.8108 25.3843C60.6485 25.305 60.5109 25.1829 60.4127 25.0312C60.3902 24.9976 60.3748 24.9597 60.3676 24.9199C60.3603 24.8801 60.3613 24.8392 60.3705 24.7998C60.3796 24.7604 60.3968 24.7233 60.4209 24.6908C60.4449 24.6582 60.4754 24.631 60.5104 24.6107C60.5454 24.5904 60.5843 24.5776 60.6244 24.5729C60.6646 24.5682 60.7054 24.5718 60.7441 24.5835C60.7828 24.5952 60.8188 24.6147 60.8497 24.6408C60.8806 24.6669 60.9058 24.6991 60.9238 24.7353C61.0247 24.9034 61.334 24.9169 61.5963 24.8564C61.8586 24.7958 62.2688 24.6748 62.4101 24.3116C62.4365 24.1102 62.4202 23.9056 62.3623 23.7109C62.3044 23.5162 62.2061 23.3359 62.0738 23.1818C61.5116 22.2925 60.901 21.4349 60.2445 20.6128C60.2086 20.5497 60.1965 20.4759 60.2104 20.4047C60.2243 20.3335 60.2634 20.2697 60.3204 20.2248C60.3775 20.18 60.4487 20.1572 60.5212 20.1605C60.5937 20.1638 60.6626 20.193 60.7153 20.2429C61.3807 21.0824 62.0025 21.9556 62.5782 22.859C62.7662 23.0874 62.8991 23.3561 62.9667 23.6441C63.0344 23.9321 63.0349 24.2319 62.9683 24.5201C62.8532 24.7646 62.6793 24.9767 62.4622 25.1375C62.2451 25.2983 61.9915 25.4027 61.7241 25.4415C61.5958 25.4681 61.4651 25.4816 61.334 25.4818Z" fill="#0C071C"/>
<path d="M58.133 20.5149C58.3893 20.5146 58.5967 20.2223 58.5964 19.8621C58.596 19.5018 58.3879 19.2099 58.1316 19.2102C57.8754 19.2105 57.6679 19.5028 57.6683 19.863C57.6687 20.2233 57.8767 20.5152 58.133 20.5149Z" fill="#0C071C"/>
<path d="M63.3322 20.0612C63.5874 20.0385 63.7685 19.7292 63.7366 19.3703C63.7047 19.0115 63.4719 18.739 63.2166 18.7616C62.9614 18.7843 62.7803 19.0937 62.8122 19.4525C62.8441 19.8114 63.0769 20.0839 63.3322 20.0612Z" fill="#0C071C"/>
<path d="M61.8182 32.7246C59.9186 32.2475 58.0895 31.524 56.3775 30.5725C56.3775 30.5725 56.2699 34.1436 61.7577 35.8451L61.8182 32.7246Z" fill="#0C071C"/>
<path d="M61.751 36.1414H61.6636C56.0346 34.3928 56.0749 30.7612 56.0816 30.5796C56.0824 30.5271 56.0972 30.4758 56.1244 30.4309C56.1515 30.386 56.1902 30.3491 56.2363 30.3241C56.2817 30.2993 56.3326 30.2864 56.3843 30.2864C56.436 30.2864 56.4868 30.2993 56.5322 30.3241C58.2259 31.2595 60.0346 31.9694 61.9124 32.4358C61.9781 32.4514 62.0363 32.4896 62.0769 32.5436C62.1174 32.5977 62.1377 32.6642 62.1343 32.7317L62.0671 35.8522C62.0653 35.8986 62.0528 35.944 62.0306 35.9848C62.0085 36.0256 61.9772 36.0608 61.9393 36.0876C61.8845 36.1264 61.8181 36.1453 61.751 36.1414ZM56.734 31.1311C56.9425 32.1197 57.8167 34.1911 61.4416 35.4419L61.4954 32.9536C59.8473 32.5194 58.2508 31.9084 56.734 31.1311Z" fill="#0C071C"/>
<path d="M176.7 77.2094L117.034 30.6913C116.745 30.4656 116.398 30.3257 116.033 30.2875C115.668 30.2493 115.299 30.3143 114.969 30.4751C114.639 30.6359 114.361 30.886 114.166 31.1971C113.971 31.5081 113.868 31.8676 113.867 32.2347V53.5057C113.867 54.2911 113.555 55.0443 113 55.5997C112.444 56.1551 111.691 56.4671 110.906 56.4671H2.99272C2.33161 56.4671 1.69758 56.7297 1.2301 57.1972C0.762626 57.6647 0.5 58.2987 0.5 58.9598V98.5512C0.5 99.2123 0.762625 99.8463 1.2301 100.314C1.69758 100.781 2.33161 101.044 2.99272 101.044H110.906C111.691 101.044 112.444 101.356 113 101.911C113.555 102.467 113.867 103.22 113.867 104.005V125.276C113.868 125.643 113.971 126.003 114.166 126.314C114.361 126.625 114.639 126.875 114.969 127.036C115.299 127.197 115.668 127.262 116.033 127.223C116.398 127.185 116.745 127.045 117.034 126.82L176.7 80.3016V77.2094ZM176.7 77.2094L176.7 77.2096C176.935 77.393 177.125 77.6275 177.256 77.8953C177.387 78.1632 177.455 78.4574 177.455 78.7555C177.455 79.0536 177.387 79.3478 177.256 79.6157C177.125 79.8835 176.935 80.118 176.7 80.3014L176.7 77.2094Z" fill="#FB6612" stroke="#0C071C"/>
<path d="M37.4192 154.001L24.8833 144.249C24.8072 144.19 24.7161 144.154 24.6205 144.144C24.5248 144.134 24.4282 144.151 24.3417 144.193C24.2551 144.235 24.1819 144.3 24.1303 144.381C24.0786 144.462 24.0506 144.556 24.0494 144.653V149.118C24.0494 149.186 24.036 149.253 24.0099 149.315C23.9838 149.378 23.9455 149.434 23.8973 149.482C23.8492 149.529 23.792 149.567 23.7292 149.592C23.6664 149.618 23.5992 149.63 23.5316 149.629H0.934817C0.852113 149.629 0.770228 149.646 0.693904 149.677C0.61758 149.709 0.548331 149.756 0.490164 149.815C0.431998 149.874 0.386069 149.943 0.355036 150.02C0.324003 150.097 0.308481 150.179 0.309371 150.261V158.56C0.30847 158.643 0.324031 158.724 0.355144 158.801C0.386257 158.877 0.432296 158.946 0.490554 159.005C0.548813 159.063 0.618117 159.109 0.694407 159.14C0.770696 159.171 0.852432 159.187 0.934817 159.186H23.5383C23.6756 159.186 23.8073 159.24 23.9045 159.337C24.0016 159.435 24.0561 159.566 24.0561 159.704V164.162C24.0561 164.259 24.0832 164.354 24.1343 164.436C24.1855 164.518 24.2586 164.584 24.3454 164.627C24.4322 164.67 24.5292 164.687 24.6255 164.678C24.7218 164.668 24.8134 164.632 24.8901 164.573L37.399 154.814C37.4629 154.768 37.5153 154.708 37.5521 154.638C37.5888 154.569 37.609 154.491 37.6109 154.413C37.6129 154.334 37.5966 154.256 37.5633 154.184C37.5301 154.113 37.4807 154.05 37.4192 154.001Z" fill="#E6E7E8"/>
<path d="M131.337 10.0002L118.828 0.268792C118.751 0.209738 118.66 0.173333 118.563 0.163704C118.467 0.154075 118.37 0.171608 118.283 0.214314C118.196 0.25702 118.123 0.323192 118.072 0.405329C118.021 0.487466 117.994 0.582283 117.994 0.679031V5.11095C117.992 5.24775 117.937 5.37845 117.84 5.47519C117.744 5.57193 117.613 5.62705 117.476 5.62879H94.8256C94.7429 5.6279 94.6609 5.64343 94.5842 5.67446C94.5076 5.70549 94.4378 5.75142 94.379 5.80959C94.3202 5.86775 94.2736 5.937 94.2417 6.01333C94.2098 6.08965 94.1935 6.17154 94.1935 6.25424V14.5599C94.1952 14.7264 94.2626 14.8855 94.381 15.0026C94.4993 15.1197 94.6591 15.1853 94.8256 15.1853H117.449C117.587 15.1853 117.718 15.2399 117.815 15.337C117.913 15.4341 117.967 15.5658 117.967 15.7032V20.162C117.968 20.2582 117.996 20.3521 118.048 20.4333C118.1 20.5144 118.173 20.5796 118.259 20.6215C118.346 20.6634 118.442 20.6803 118.538 20.6705C118.634 20.6606 118.725 20.6242 118.801 20.5655L131.31 10.8139C131.373 10.7675 131.425 10.7074 131.462 10.6381C131.498 10.5687 131.519 10.492 131.521 10.4136C131.524 10.3352 131.508 10.2573 131.477 10.1857C131.445 10.1141 131.397 10.0507 131.337 10.0002Z" fill="#E6E7E8"/>
<path d="M34.7627 42.1738C34.7627 42.1738 14.0557 45.4221 12.9864 58.3144C11.9171 71.2066 22.0049 96.8499 22.0049 96.8499C22.0049 96.8499 24.2982 104.436 25.1053 103.636C25.9123 102.835 24.6883 97.9999 24.6883 97.9999C24.6883 97.9999 26.9143 103.932 27.6877 102.566C28.4611 101.201 26.7798 96.8432 26.7798 96.8432C26.7798 96.8432 29.1673 103.763 29.8936 101.84C30.6199 99.9166 29.2614 96.2648 29.2614 96.2648C29.2614 96.2648 30.9696 102.802 31.7565 101.087C32.5433 99.3718 30.936 92.7004 30.936 92.7004C30.936 92.7004 34.0229 96.7826 34.6618 95.3434C35.3007 93.9042 31.7632 91.5504 31.0033 88.4232C30.2433 85.296 25.0246 64.8849 26.5445 62.5311C28.0644 60.1773 39.5309 54.9181 39.5309 54.9181" fill="white"/>
<path d="M24.9707 104.026C24.9284 104.032 24.8853 104.032 24.8429 104.026C23.8409 103.77 22.3008 99.0021 21.6888 96.9576C21.5947 96.729 11.601 71.1193 12.6568 58.301C13.7261 45.2945 34.5004 41.8848 34.7088 41.8511C34.7969 41.8394 34.886 41.8623 34.9575 41.915C35.029 41.9677 35.0773 42.046 35.0922 42.1336C35.0998 42.1769 35.0988 42.2214 35.089 42.2643C35.0792 42.3072 35.0609 42.3477 35.0352 42.3835C35.0095 42.4192 34.9769 42.4494 34.9393 42.4723C34.9018 42.4953 34.86 42.5104 34.8164 42.5169C34.608 42.5169 14.3516 45.8795 13.2957 58.3548C12.2533 71.0184 22.1932 96.4868 22.2941 96.7424C23.1616 99.6006 24.3587 102.795 24.9102 103.313C25.2196 102.694 24.8698 100.206 24.3318 98.0942C24.3125 98.0105 24.3253 97.9226 24.3676 97.8479C24.4099 97.7732 24.4788 97.7171 24.5605 97.6907C24.6426 97.6676 24.7304 97.6754 24.8072 97.7126C24.8839 97.7498 24.9445 97.8137 24.9774 97.8924C25.8719 100.28 26.995 102.365 27.3851 102.452C27.7953 101.672 27.2842 99.4728 26.7126 97.8252C26.5982 97.5225 26.4973 97.2333 26.4032 96.9643C26.3753 96.8805 26.3815 96.789 26.4206 96.7097C26.4596 96.6304 26.5282 96.5697 26.6117 96.5406C26.6938 96.512 26.7838 96.5164 26.8628 96.5528C26.9418 96.5891 27.0037 96.6547 27.0354 96.7357C27.0757 96.8366 27.19 97.1257 27.3245 97.5292C28.145 99.762 29.0664 101.611 29.4766 101.84L29.5304 101.733C29.7967 100.624 29.7712 99.4656 29.4564 98.3699C29.2278 97.6974 29.0328 96.9643 28.8848 96.386C28.858 96.2968 28.8678 96.2006 28.912 96.1186C28.9561 96.0367 29.031 95.9756 29.1202 95.9488C29.2094 95.9221 29.3055 95.9318 29.3875 95.976C29.4695 96.0201 29.5306 96.095 29.5573 96.1842C29.7852 96.8153 29.9739 97.4599 30.1222 98.1143C30.5863 99.5535 31.0907 100.804 31.4 101.04C31.4026 101.02 31.4026 100.999 31.4 100.979C32.0053 99.6342 30.9763 94.6374 30.5325 92.8149C30.5141 92.7398 30.5221 92.6608 30.5552 92.591C30.5883 92.5211 30.6444 92.4648 30.7141 92.4315C30.7831 92.3962 30.8626 92.387 30.938 92.4055C31.0133 92.4241 31.0795 92.4691 31.1243 92.5324C32.1667 93.8775 33.5992 95.3436 34.1439 95.3436H34.1776C34.1776 95.3436 34.2313 95.3436 34.2784 95.236C34.5138 94.6912 33.8077 93.7766 32.9805 92.714C32.1533 91.6514 30.9629 90.1517 30.6065 88.5376L30.3442 87.4616C26.5041 71.9263 25.1792 63.9569 26.188 62.3832C27.7482 59.9487 38.8449 54.8577 39.3156 54.6425C39.3968 54.6061 39.4891 54.6034 39.5723 54.6349C39.6555 54.6664 39.7228 54.7296 39.7595 54.8106C39.7786 54.8503 39.7897 54.8934 39.7919 54.9373C39.7941 54.9813 39.7875 55.0253 39.7725 55.0666C39.7574 55.108 39.7342 55.146 39.7043 55.1782C39.6743 55.2105 39.6382 55.2364 39.5981 55.2545C35.6638 57.0501 27.9164 60.9306 26.7529 62.7464C26.1544 63.6879 26.3965 68.7117 30.9965 87.3002L31.2588 88.3762C31.7308 89.8248 32.4979 91.1598 33.5118 92.297C34.5071 93.5815 35.2939 94.597 34.8904 95.5117C34.8361 95.6499 34.7445 95.7702 34.6257 95.8593C34.507 95.9484 34.3658 96.0027 34.2179 96.0161C33.4512 96.0968 32.3079 95.0073 31.4673 94.0523C31.9111 96.1573 32.5837 99.9369 31.9717 101.262C31.7699 101.712 31.474 101.759 31.2992 101.746C30.9763 101.712 30.6266 101.316 30.3374 100.724C30.3308 101.155 30.2535 101.582 30.1088 101.988C29.9339 102.452 29.6649 102.533 29.4363 102.546C29.0193 102.546 28.5485 101.961 28.0912 101.134C28.1675 101.689 28.0884 102.255 27.8626 102.768C27.8102 102.886 27.7226 102.985 27.6119 103.051C27.5011 103.117 27.3725 103.148 27.2438 103.138C26.7058 103.098 26.0737 102.149 25.5087 101.047C25.6634 102.277 25.6701 103.474 25.2263 103.905C25.1542 103.968 25.0656 104.01 24.9707 104.026Z" fill="#0C071C"/>
<path d="M47.5003 20.505C47.4238 20.5061 47.3491 20.4815 47.2882 20.4351C47.2272 20.3888 47.1835 20.3235 47.164 20.2495L45.5432 13.8672C45.4227 13.5134 45.411 13.1316 45.5096 12.771C45.693 12.3752 46.0096 12.0562 46.4041 11.8698C53.3512 7.83471 60.527 3.94753 67.6625 0.295738C67.8814 0.152038 68.1289 0.0577435 68.3879 0.0194166C68.6469 -0.0189104 68.9111 -0.000350973 69.1622 0.0738045C69.3029 0.137549 69.4284 0.230478 69.5305 0.346424C69.6325 0.46237 69.7087 0.598684 69.754 0.746327C69.8208 1.00494 69.8356 1.27425 69.7975 1.53862C69.7594 1.80299 69.6692 2.05717 69.5321 2.2864C69.4354 2.45112 69.3299 2.61051 69.216 2.76389C69.1017 2.93202 68.9941 3.09343 68.9067 3.25484C69.3407 3.10472 69.8107 3.09297 70.2517 3.22121C70.4067 3.27645 70.5474 3.36545 70.6637 3.48177C70.78 3.59808 70.869 3.73879 70.9242 3.89373C71.0311 4.20352 71.0451 4.53779 70.9646 4.85544C70.69 6.29773 70.022 7.63604 69.0344 8.72244C69.8596 8.77623 70.6878 8.75598 71.5093 8.66191C71.5625 8.65704 71.6161 8.66418 71.6662 8.6828C71.7162 8.70143 71.7614 8.73106 71.7985 8.76952C71.9175 8.89322 72.0099 9.03998 72.0701 9.20074C72.1302 9.36151 72.1568 9.53289 72.1482 9.70432C72.0148 10.4978 71.5963 11.2152 70.9713 11.7219L66.9362 15.3199C66.9042 15.3526 66.866 15.3786 66.8239 15.3964C66.7817 15.4142 66.7364 15.4233 66.6907 15.4233C66.645 15.4233 66.5997 15.4142 66.5575 15.3964C66.5154 15.3786 66.4772 15.3526 66.4452 15.3199C66.3808 15.2545 66.3446 15.1663 66.3446 15.0744C66.3446 14.9825 66.3808 14.8944 66.4452 14.8289L70.4804 11.2377C70.9846 10.8566 71.3315 10.3039 71.4555 9.68415C71.4654 9.57871 71.4419 9.47283 71.3883 9.38151C70.3343 9.48469 69.2722 9.47341 68.2207 9.34789C68.1547 9.33861 68.0926 9.31101 68.0414 9.26822C67.9903 9.22542 67.9522 9.16914 67.9315 9.10578C67.9127 9.04187 67.9122 8.97396 67.93 8.90977C67.9478 8.84558 67.9833 8.78767 68.0324 8.74262C69.2073 7.68344 69.9974 6.26416 70.2786 4.70748C70.3324 4.51845 70.3324 4.31815 70.2786 4.12911C70.2578 4.07278 70.2246 4.02182 70.1816 3.97993C70.1385 3.93805 70.0867 3.9063 70.0298 3.88701C69.5152 3.79696 68.9853 3.89481 68.5368 4.16274C68.4838 4.19411 68.4234 4.21066 68.3619 4.21066C68.3004 4.21066 68.24 4.19411 68.1871 4.16274C68.1368 4.12844 68.0958 4.08225 68.0676 4.02829C68.0394 3.97432 68.025 3.91424 68.0257 3.85338C68.0953 3.31927 68.3144 2.81571 68.6578 2.40073C68.7587 2.25278 68.8596 2.11155 68.947 1.96359C69.1226 1.67081 69.1803 1.32219 69.1084 0.988435C69.0933 0.932752 69.0662 0.881038 69.029 0.836901C68.9919 0.792763 68.9455 0.757264 68.8932 0.732877C68.6444 0.625274 68.3014 0.779953 67.992 0.934633C60.8431 4.5797 53.7009 8.46688 46.7672 12.4953C46.4915 12.65 46.2359 12.8114 46.162 13.0266C46.1193 13.2515 46.1379 13.4838 46.2158 13.6991L47.8365 20.0746C47.8486 20.1188 47.8518 20.1649 47.8458 20.2103C47.8397 20.2557 47.8247 20.2995 47.8015 20.339C47.7783 20.3784 47.7474 20.4129 47.7107 20.4403C47.674 20.4676 47.6322 20.4874 47.5877 20.4983L47.5003 20.505Z" fill="#0C071C"/>
<path d="M100.286 94.5631C100.374 93.8906 100.73 93.0903 101.369 93.2181C101.8 93.2988 102.042 93.7696 102.149 94.1798C102.743 96.0059 103.122 97.895 103.279 99.8088C103.468 98.5041 103.716 97.2062 104.026 95.9284C104.111 95.3586 104.364 94.8271 104.752 94.4017C104.851 94.3013 104.969 94.2219 105.099 94.1683C105.229 94.1147 105.369 94.0881 105.51 94.09C105.65 94.0919 105.789 94.1222 105.918 94.1793C106.047 94.2363 106.163 94.3189 106.258 94.4219C106.396 94.6869 106.454 94.9856 106.427 95.2827V99.3784L107.287 95.8073C107.308 95.5834 107.379 95.3671 107.496 95.1748C107.612 94.9825 107.771 94.8194 107.96 94.6976C108.686 94.3883 109.305 95.3702 109.244 96.1705C109.177 96.7085 108.969 97.2263 108.902 97.7576L109.204 97.798C109.567 96.7354 109.735 95.5652 110.018 94.469C110.104 94.0447 110.266 93.6393 110.495 93.2719C111.901 91.2947 112.708 93.9041 112.654 95.007C112.547 97.2062 112.708 99.412 111.867 101.51C110.26 105.545 106.285 106.003 102.983 103.669C99.9233 101.53 99.8292 98.1342 100.286 94.5631Z" fill="white"/>
<path d="M107.005 105.424C105.471 105.381 103.987 104.866 102.755 103.952C99.5265 101.665 99.4996 98.0671 99.957 94.5364C100.003 93.9763 100.261 93.4548 100.677 93.077C100.784 92.998 100.906 92.9418 101.035 92.9117C101.165 92.8816 101.299 92.8784 101.43 92.9021C102.049 93.0165 102.318 93.6352 102.465 94.0925C102.837 95.2244 103.124 96.382 103.326 97.556C103.441 96.9843 103.568 96.4194 103.703 95.8612C103.799 95.2232 104.088 94.6296 104.53 94.1598C104.693 94.0168 104.885 93.9099 105.092 93.8461C105.3 93.7824 105.519 93.7632 105.734 93.7899C105.897 93.8055 106.054 93.8571 106.195 93.9408C106.336 94.0245 106.456 94.1383 106.548 94.2741C106.722 94.5946 106.8 94.9593 106.77 95.3232V96.4867L106.931 95.7671C106.962 95.4921 107.056 95.228 107.206 94.9948C107.355 94.7617 107.555 94.5658 107.792 94.422C107.966 94.3495 108.156 94.325 108.343 94.351C108.53 94.377 108.707 94.4526 108.854 94.57C109.122 94.7827 109.322 95.0674 109.433 95.3905C109.507 95.0609 109.574 94.7179 109.661 94.4153C109.758 93.9528 109.935 93.5111 110.186 93.1106C110.825 92.2162 111.383 92.1758 111.74 92.3036C112.627 92.6062 112.997 94.2337 112.957 95.0542C112.957 95.5182 112.923 95.989 112.91 96.4531C112.973 98.222 112.716 99.9879 112.15 101.665C111.866 102.501 111.392 103.259 110.763 103.879C110.135 104.499 109.371 104.964 108.532 105.236C108.034 105.37 107.52 105.433 107.005 105.424ZM101.248 93.5343C101.185 93.5348 101.123 93.5561 101.073 93.5948C100.808 93.8666 100.648 94.2244 100.623 94.6036C100.192 97.9662 100.206 101.329 103.145 103.4C103.868 103.973 104.711 104.374 105.611 104.576C106.511 104.777 107.445 104.773 108.343 104.564C109.083 104.317 109.756 103.902 110.308 103.351C110.86 102.801 111.276 102.129 111.524 101.389C112.06 99.7871 112.302 98.101 112.237 96.4127C112.237 95.9419 112.237 95.4644 112.284 94.9937C112.325 94.2472 111.941 93.0568 111.518 92.9089C111.235 92.8147 110.879 93.272 110.737 93.4738C110.532 93.8094 110.387 94.178 110.307 94.5633C110.206 94.9735 110.112 95.3972 110.025 95.8209C109.888 96.5284 109.708 97.2269 109.487 97.9124C109.474 97.9541 109.452 97.9928 109.424 98.0262C109.396 98.0597 109.362 98.0872 109.323 98.1072C109.284 98.1272 109.242 98.1394 109.198 98.1429C109.155 98.1464 109.111 98.1412 109.07 98.1276H108.841C108.796 98.1244 108.751 98.112 108.711 98.0912C108.67 98.0704 108.635 98.0416 108.606 98.0066C108.576 97.9717 108.554 97.9308 108.541 97.8868C108.528 97.8427 108.525 97.7964 108.532 97.751C108.575 97.4812 108.633 97.214 108.706 96.9507C108.784 96.6957 108.84 96.4348 108.875 96.1706C108.892 95.9737 108.863 95.7755 108.789 95.592C108.715 95.4086 108.6 95.245 108.451 95.1147C108.399 95.067 108.335 95.0352 108.266 95.0233C108.197 95.0114 108.125 95.0198 108.061 95.0475C107.799 95.1618 107.678 95.5384 107.583 95.9285L106.723 99.4996C106.702 99.5796 106.653 99.6495 106.585 99.6964C106.517 99.7434 106.435 99.7642 106.353 99.7551C106.272 99.7437 106.198 99.7033 106.145 99.6414C106.092 99.5796 106.063 99.5005 106.063 99.4189V95.3232C106.089 95.0928 106.049 94.8597 105.949 94.6507C105.91 94.5964 105.86 94.5513 105.802 94.5188C105.744 94.4862 105.679 94.467 105.613 94.4624C105.492 94.4473 105.37 94.4582 105.254 94.4941C105.138 94.5301 105.031 94.5903 104.94 94.6709C104.605 95.0484 104.387 95.516 104.315 96.0159C104.012 97.2803 103.757 98.5782 103.575 99.8695C103.575 99.9587 103.54 100.044 103.477 100.107C103.414 100.17 103.328 100.206 103.239 100.206C103.15 100.206 103.064 100.17 103.001 100.107C102.938 100.044 102.903 99.9587 102.903 99.8695C102.747 97.983 102.372 96.121 101.786 94.3212C101.638 93.8638 101.47 93.6486 101.268 93.5881L101.248 93.5343Z" fill="#0C071C"/>
<path d="M96.8432 157.639C96.8432 157.639 101.463 170 104.14 170C106.158 170 125.768 157.222 135.285 150.981C135.661 150.732 135.951 150.373 136.115 149.953C136.279 149.533 136.308 149.072 136.199 148.635C136.089 148.197 135.847 147.804 135.505 147.51C135.163 147.216 134.738 147.035 134.289 146.993L119.655 145.533L96.8432 157.639Z" fill="#0C071C"/>
<path d="M20.2295 110.704C20.2295 110.704 13.3025 105.323 12.1592 107.133C11.0159 108.942 1.88307 125.896 3.89391 126.347C5.90476 126.797 14.4727 122.547 14.4727 122.547L20.2295 110.704Z" fill="#0C071C"/>
<path d="M48.3275 33.4712C47.8836 33.4712 33.8615 35.6367 22.8389 42.6377L31.3261 61.2531L46.969 54.4001L48.3275 33.4712Z" fill="#0C071C"/>
<path d="M76.533 56.2295C76.4536 56.229 76.3769 56.2003 76.3166 56.1486C76.2563 56.0969 76.2162 56.0255 76.2035 55.9471L74.9392 48.1996C74.9315 48.1563 74.9326 48.1118 74.9424 48.0689C74.9521 48.026 74.9704 47.9855 74.9961 47.9498C75.0218 47.914 75.0544 47.8838 75.092 47.8609C75.1296 47.838 75.1714 47.8228 75.2149 47.8163C75.3022 47.8027 75.3914 47.8239 75.4631 47.8755C75.5348 47.9271 75.5834 48.0049 75.5982 48.092L76.8626 55.8395C76.8702 55.8828 76.8692 55.9273 76.8594 55.9702C76.8496 56.0131 76.8313 56.0536 76.8056 56.0893C76.7799 56.1251 76.7473 56.1553 76.7097 56.1782C76.6722 56.2011 76.6304 56.2163 76.5868 56.2228L76.533 56.2295Z" fill="white"/>
<path d="M63.1297 28.5956C63.1297 28.5956 57.3191 29.1538 56.4045 23.0137L63.1297 28.5956Z" fill="white"/>
<path d="M62.8001 28.9047C61.4887 28.9047 56.9223 28.5079 56.1287 23.0538C56.1171 22.9753 56.1372 22.8954 56.1845 22.8317C56.2318 22.768 56.3024 22.7257 56.3809 22.7142C56.4594 22.7026 56.5392 22.7226 56.6029 22.7699C56.6666 22.8172 56.7089 22.8879 56.7205 22.9663C56.7847 23.7368 57.0011 24.4868 57.3571 25.173C57.7132 25.8592 58.2019 26.4679 58.7948 26.964C59.3878 27.46 60.0733 27.8334 60.8116 28.0627C61.5499 28.2919 62.3264 28.3724 63.096 28.2994C63.1745 28.2914 63.253 28.3149 63.3141 28.3647C63.3753 28.4145 63.4142 28.4866 63.4222 28.5651C63.4302 28.6436 63.4068 28.722 63.3569 28.7832C63.3071 28.8444 63.235 28.8832 63.1566 28.8913C63.0383 28.9048 62.9191 28.9093 62.8001 28.9047Z" fill="#0C071C"/>
<path d="M45.254 55.1871C45.1864 55.1881 45.1202 55.1679 45.0647 55.1293C45.0092 55.0907 44.9672 55.0356 44.9446 54.9719C44.9283 54.9308 44.9201 54.8869 44.9207 54.8427C44.9213 54.7985 44.9307 54.7549 44.9481 54.7143C44.9656 54.6737 44.991 54.6369 45.0227 54.6061C45.0544 54.5753 45.0919 54.5511 45.133 54.5347L49.1681 52.9745C49.2493 52.9498 49.3368 52.9567 49.4131 52.9939C49.4894 53.0311 49.5488 53.0957 49.5795 53.1748C49.6101 53.254 49.6097 53.3418 49.5783 53.4206C49.5469 53.4995 49.4868 53.5635 49.4102 53.5999L45.3751 55.1602C45.3374 55.1787 45.2959 55.1879 45.254 55.1871Z" fill="white"/>
</svg>
