<svg width="146" height="170" viewBox="0 0 146 170" fill="none" xmlns="http://www.w3.org/2000/svg">
<path d="M15.3631 101.383C15.3631 101.383 17.0367 111.083 16.6792 112.757C16.3217 114.431 10.1231 139.566 7.62086 144.571C7.62086 144.571 1.30034 153.272 0.707281 156.489C0.114224 159.706 -0.00763625 163.045 3.45322 163.524C6.91407 164.004 10.3587 163.882 11.9104 161.022C13.4621 158.162 19.7745 140.883 19.7745 140.883L24.2996 99.8804L15.3631 101.383Z" fill="white"/>
<path d="M6.24794 164.142C5.29597 164.133 4.34582 164.057 3.40451 163.914C2.89298 163.871 2.39609 163.722 1.94564 163.475C1.49519 163.229 1.10109 162.892 0.788565 162.484C-0.34068 160.925 -0.0238426 158.422 0.317368 156.408C0.926673 153.158 7.03597 144.685 7.30407 144.327C9.66817 139.575 15.8425 114.756 16.2893 112.643C16.5655 111.335 15.4769 104.105 14.9732 101.432C14.9565 101.324 14.9827 101.213 15.0463 101.123C15.0767 101.08 15.1154 101.044 15.16 101.016C15.2046 100.988 15.2543 100.969 15.3063 100.961L24.2427 99.4498C24.3052 99.4407 24.3688 99.4455 24.4292 99.4637C24.4895 99.482 24.5451 99.5133 24.5921 99.5554C24.6369 99.5993 24.6712 99.6529 24.6923 99.712C24.7134 99.7711 24.7208 99.8342 24.7139 99.8966L20.1888 140.891V140.988C19.9289 141.695 13.8439 158.325 12.3004 161.185C11.0168 163.557 8.66078 164.142 6.24794 164.142ZM15.8425 101.716C16.1837 103.731 17.4185 111.278 17.0854 112.83C16.8173 114.073 10.5862 139.599 7.99461 144.75C7.89712 144.888 1.69033 153.467 1.11353 156.554C0.772315 158.406 0.504221 160.705 1.44661 162.005C1.69209 162.326 2.00317 162.59 2.35903 162.78C2.7149 162.971 3.10734 163.083 3.51013 163.11C7.89712 163.719 10.375 163.012 11.5611 160.819C13.0397 158.089 19.019 141.768 19.4252 140.809L23.8934 100.4L15.8425 101.716Z" fill="#0C071C"/>
<path d="M25.6076 159.04C23.2341 163.188 19.3522 166.261 14.7701 167.619L16.3137 159.495L25.2501 158.349L25.6076 159.04Z" fill="#0C071C"/>
<path d="M14.7701 168.057C14.7207 168.058 14.6715 168.05 14.6255 168.032C14.5795 168.013 14.5375 167.986 14.502 167.952C14.4503 167.906 14.4112 167.847 14.3885 167.782C14.3657 167.716 14.3601 167.646 14.372 167.578L15.9156 159.454C15.9321 159.37 15.9748 159.293 16.0375 159.235C16.1003 159.177 16.1799 159.14 16.2649 159.129L25.2014 157.984C25.2879 157.971 25.3762 157.987 25.4525 158.03C25.5289 158.072 25.5891 158.139 25.6239 158.219L25.9407 158.894C25.9706 158.951 25.9862 159.015 25.9862 159.08C25.9862 159.145 25.9706 159.209 25.9407 159.267C23.5284 163.523 19.5588 166.677 14.8676 168.066L14.7701 168.057ZM16.6549 159.877L15.2982 167.058C19.4495 165.665 22.9521 162.809 25.1527 159.024L25.0471 158.804L16.6549 159.877Z" fill="#0C071C"/>
<path d="M28.0123 148.812L20.7819 144.871L22.4067 136.512C25.7612 139.757 27.7638 144.151 28.0123 148.812Z" fill="#0C071C"/>
<path d="M28.0123 149.218C27.9444 149.217 27.8776 149.2 27.8174 149.169L20.587 145.205C20.5121 145.163 20.4522 145.099 20.4157 145.022C20.3792 144.945 20.3681 144.858 20.3839 144.774L21.968 136.406C21.9795 136.334 22.0117 136.266 22.0606 136.211C22.1096 136.156 22.1734 136.117 22.2443 136.097C22.3144 136.074 22.3895 136.071 22.4612 136.089C22.5329 136.106 22.5984 136.143 22.6505 136.195C26.0989 139.51 28.1605 144.011 28.4186 148.787C28.4219 148.859 28.4064 148.931 28.3736 148.995C28.3408 149.059 28.2919 149.113 28.2317 149.153C28.1658 149.194 28.09 149.216 28.0123 149.218ZM21.2369 144.636L27.5493 148.121C27.1651 144.077 25.431 140.279 22.6261 137.34L21.2369 144.636Z" fill="#0C071C"/>
<path d="M33.2361 54.5562C29.9864 55.6285 21.1475 59.8043 18.4259 66.9047C16.9717 70.6905 12.5441 103.463 12.5441 103.463H24.4702L33.2361 54.5562Z" fill="#0C071C"/>
<path d="M24.4702 103.877H12.5522C12.4944 103.877 12.4374 103.864 12.385 103.84C12.3326 103.815 12.286 103.78 12.2483 103.736C12.2106 103.692 12.1827 103.641 12.1665 103.585C12.1503 103.53 12.1461 103.472 12.1542 103.414C12.3329 102.074 16.6061 70.5444 18.0522 66.7667C20.6844 59.91 29.0522 55.523 33.1142 54.1663C33.1806 54.1444 33.2517 54.1403 33.3201 54.1546C33.3886 54.1689 33.4521 54.2009 33.5042 54.2475C33.5587 54.2916 33.6003 54.3496 33.6246 54.4154C33.6489 54.4812 33.655 54.5523 33.6423 54.6212L24.8683 103.544C24.8528 103.638 24.8041 103.724 24.731 103.785C24.658 103.846 24.5655 103.879 24.4702 103.877ZM13.0153 103.065H24.129L32.7162 55.133C28.6054 56.6685 21.2044 60.8199 18.8159 67.0185C17.4835 70.5038 13.5596 99.068 13.0153 103.065Z" fill="#0C071C"/>
<path d="M15.8506 146.594C15.8506 147.187 13.1128 159.34 14.0633 169.593H66.496C66.496 169.593 68.6408 145.042 63.5145 135.87L15.8506 146.594Z" fill="#0C071C"/>
<path d="M66.496 169.999H14.0633C13.9615 169.998 13.8638 169.959 13.7889 169.89C13.714 169.821 13.6671 169.727 13.6571 169.625C12.8447 161.006 14.6645 150.94 15.2819 147.69C15.3794 147.154 15.4606 146.683 15.4688 146.594C15.4729 146.503 15.5059 146.417 15.5629 146.346C15.6199 146.276 15.698 146.226 15.7856 146.204L63.4576 135.48C63.542 135.462 63.63 135.471 63.7089 135.506C63.7877 135.541 63.8534 135.6 63.8963 135.675C69.0226 144.855 67.016 168.626 66.9266 169.634C66.9163 169.738 66.8656 169.835 66.7853 169.903C66.7049 169.972 66.6012 170.006 66.496 169.999ZM14.437 169.187H66.1223C66.3579 166.116 67.7959 144.863 63.3033 136.333L16.1837 146.894L16.0293 147.796C15.4769 151.046 13.7383 160.754 14.437 169.187Z" fill="#0C071C"/>
<path d="M45.2841 49.7468C45.2841 49.7468 36.9407 50.3074 31.7006 56.0267C26.4606 61.7461 21.4481 70.8044 20.2376 79.879C19.0271 88.9536 20.4732 101.57 20.2376 107.769C20.002 113.968 14.7538 147.577 14.7538 147.577C14.7538 147.577 31.6763 155.92 43.3506 152.346C51.2983 149.785 59.0298 146.595 66.4717 142.808L62.8971 113.017C63.8476 106.583 68.194 62.201 61.2722 55.6693C59.2819 53.7682 55.9835 47.3827 45.2841 49.7468Z" fill="#4ADBC8"/>
<path d="M62.2309 148.194C62.1316 148.193 62.036 148.157 61.9614 148.091C61.8869 148.025 61.8384 147.935 61.8247 147.837C61.8247 147.601 59.2007 124.277 58.8757 117.9C58.5507 111.522 58.8757 92.5931 58.8757 92.3981C58.8745 92.3441 58.8845 92.2904 58.9051 92.2405C58.9257 92.1906 58.9564 92.1454 58.9954 92.108C59.0343 92.0706 59.0806 92.0417 59.1314 92.0231C59.1821 92.0045 59.2361 91.9966 59.29 92C59.3434 92.0011 59.396 92.0126 59.4449 92.034C59.4937 92.0554 59.5379 92.0863 59.5749 92.1247C59.6119 92.1632 59.6409 92.2086 59.6603 92.2583C59.6797 92.308 59.6892 92.361 59.6881 92.4144C59.6881 92.6012 59.3713 111.506 59.6881 117.859C60.0049 124.212 62.6128 147.512 62.6371 147.747C62.6486 147.854 62.6174 147.961 62.5504 148.044C62.4835 148.128 62.3862 148.182 62.2797 148.194H62.2309Z" fill="#0C071C"/>
<path d="M61.4916 99.7991L67.5278 113.301C67.5278 113.301 58.5345 139.843 58.2664 146.675C58.2664 146.675 54.2044 152.232 53.8631 156.204C53.5219 160.177 54.8218 165.263 56.2516 166.213C57.6815 167.164 65.9436 167.026 66.4961 164.588C67.0485 162.151 67.8447 157.114 67.5278 154.572C67.3609 152.51 67.3853 150.438 67.6009 148.381C67.6009 148.381 78.6497 126.998 79.2915 119.687C79.9333 112.375 76.4318 96.8013 76.4318 96.8013L61.4916 99.7991Z" fill="white"/>
<path d="M59.8099 167.164C58.5181 167.251 57.2234 167.042 56.0241 166.555C54.3993 165.49 53.1319 160.25 53.4569 156.172C53.7656 152.378 57.2915 147.333 57.8683 146.529C58.2176 139.737 66.301 115.657 67.0972 113.326L61.1179 99.9616C61.0952 99.9058 61.0849 99.8458 61.0877 99.7857C61.0905 99.7256 61.1064 99.6669 61.1342 99.6135C61.1621 99.5602 61.2012 99.5135 61.2489 99.4768C61.2966 99.4401 61.3517 99.4142 61.4104 99.401L76.3505 96.3788C76.4537 96.3594 76.5605 96.3807 76.6483 96.4383C76.7362 96.4958 76.7983 96.5852 76.8217 96.6876C76.9679 97.3294 80.3232 112.408 79.6895 119.695C79.0558 126.982 68.8033 146.967 67.999 148.535C67.7929 150.538 67.7711 152.556 67.934 154.563C68.2508 157.098 67.4953 162.119 66.8941 164.718C66.7316 165.401 66.0817 165.953 65.0743 166.343C63.3793 166.915 61.5987 167.193 59.8099 167.164ZM62.0684 100.1L67.9015 113.139C67.9378 113.233 67.9378 113.337 67.9015 113.431C67.8121 113.699 58.9163 139.997 58.6563 146.691C58.6504 146.77 58.6222 146.847 58.5751 146.911C58.5751 146.967 54.5618 152.427 54.2531 156.237C53.9362 160.234 55.2279 165.052 56.4547 165.88C57.4214 166.522 62.2471 166.603 64.7656 165.612C65.3018 165.401 65.968 165.035 66.0817 164.532C66.6016 162.338 67.4222 157.22 67.1135 154.669C66.9402 152.573 66.962 150.465 67.1784 148.373C67.186 148.324 67.2025 148.277 67.2272 148.235C67.3328 148.024 78.2434 126.771 78.869 119.622C79.4377 113.123 76.6267 99.7097 76.0987 97.2562L62.0684 100.1Z" fill="#0C071C"/>
<path d="M58.2988 52.4441C58.2988 52.4441 50.1747 63.8178 53.8143 77.3606C55.7722 84.6723 61.8084 103.138 62.2877 103.455C62.767 103.772 78.5358 99.7993 78.5358 99.7993C78.5358 99.7993 75.0669 77.2062 70.6149 68.7816C66.1629 60.3569 64.2294 55.9293 58.2988 52.4441Z" fill="#0C071C"/>
<path d="M62.3528 103.853C62.1497 103.853 62.1009 103.853 62.0603 103.788C61.3129 103.292 54.9355 83.1529 53.4244 77.4661C49.8092 63.8745 57.8845 52.3221 57.9658 52.2084C58.0248 52.1259 58.1126 52.0685 58.2118 52.0474C58.311 52.0264 58.4145 52.0432 58.5019 52.0946C63.9857 55.3442 66.033 59.2275 69.7538 66.3442L70.9318 68.5946C75.3594 76.9786 78.7552 98.808 78.8934 99.7341C78.9106 99.834 78.889 99.9366 78.8332 100.021C78.7773 100.106 78.6914 100.166 78.5928 100.189C66.0086 103.374 63.1083 103.853 62.3528 103.853ZM58.4207 52.9883C57.194 54.8974 51.0197 65.2719 54.2124 77.2548C56.1703 84.6153 61.6703 101.286 62.5234 103.065C63.9045 102.968 72.4835 100.896 78.0322 99.4985C77.561 96.5495 74.2708 76.6537 70.2169 68.9683L69.0307 66.7179C65.4561 59.8856 63.4576 56.0592 58.4207 52.9883Z" fill="#0C071C"/>
<path d="M33.5043 42.8818C32.9356 42.8818 33.5043 58.8293 33.6992 59.9423C33.943 61.3478 34.4629 62.8914 35.7546 63.4844C36.2887 63.6972 36.8619 63.7941 37.4363 63.7688C39.2613 63.7067 41.0492 63.2367 42.6687 62.3932C44.2882 61.5497 45.6982 60.3541 46.7952 58.8943C48.9968 56.0672 49.6305 52.9069 50.0936 49.4542C50.1667 48.8774 50.3129 42.2969 50.0936 42.2969L33.5043 42.8818Z" fill="white"/>
<path d="M37.4037 64.2076C36.7809 64.2303 36.1604 64.1195 35.5839 63.8827C34.4059 63.3465 33.6585 62.0873 33.3011 60.0481C33.3011 59.9019 32.4074 43.5725 33.1548 42.6464C33.2413 42.5508 33.3598 42.4901 33.4879 42.4758L50.061 41.964C50.1219 41.9627 50.1823 41.9744 50.2383 41.9982C50.2943 42.022 50.3447 42.0574 50.386 42.1021C50.8247 42.5814 50.4997 49.5112 50.4916 49.5762C50.0691 52.8258 49.4517 56.2054 47.1201 59.2032C45.9865 60.7122 44.5269 61.9459 42.8502 62.8123C41.1735 63.6788 39.3229 64.1558 37.4362 64.2076H37.4037ZM33.7804 43.3207C33.4392 45.2623 33.8779 58.7564 34.0972 59.9506C34.4141 61.7054 35.0071 62.7616 35.9251 63.2003C36.4032 63.3977 36.92 63.4838 37.4362 63.4521C39.1986 63.3994 40.9264 62.9507 42.4917 62.1392C44.057 61.3277 45.4195 60.1743 46.4783 58.7645C48.6881 55.9211 49.273 52.639 49.7279 49.5275C49.8092 48.9182 49.8904 44.0681 49.7929 42.8414L33.7804 43.3207Z" fill="#0C071C"/>
<path d="M56.0322 30.1271C56.2203 29.6265 56.383 29.1167 56.5196 28.5997C59.2006 18.7452 55.2523 6.09606 43.643 5.29178C38.208 4.91807 33.3335 8.09458 30.6445 12.7253C27.3217 18.5178 28.2072 25.9269 28.8572 32.3124C28.8549 32.7359 28.9825 33.1498 29.2227 33.4985C29.8808 34.3109 31.1725 33.7666 32.0337 33.7504C33.2767 33.7504 34.5521 33.9372 35.8032 34.0022C37.948 34.1078 40.1009 34.181 42.2537 34.1485C45.3571 34.0997 48.4849 34.3678 51.5558 33.8804C52.8719 33.6691 53.7737 33.661 54.6511 32.6049C55.2451 31.8609 55.7118 31.0236 56.0322 30.1271Z" fill="white"/>
<path d="M46.917 34.5872H45.0159C44.106 34.5872 43.2043 34.5872 42.2944 34.5872C40.4177 34.5872 38.3542 34.5872 35.7951 34.441C35.3158 34.441 34.8284 34.3679 34.3328 34.3273C33.5748 34.241 32.8128 34.1949 32.0499 34.1892C31.8156 34.202 31.5823 34.2292 31.3513 34.2704C30.5389 34.3841 29.5558 34.5304 28.914 33.7911C28.6178 33.3819 28.4559 32.8908 28.451 32.3856L28.3616 31.4757C27.7523 25.2364 27.0618 18.1685 30.2951 12.5223C33.2035 7.44473 38.3217 4.5282 43.643 4.88566C45.7439 4.99264 47.7927 5.57815 49.6329 6.59751C51.4731 7.61687 53.0561 9.04315 54.2611 10.7675C57.5108 15.3982 58.5831 22.4418 56.8771 28.7054C56.7146 29.2985 56.5521 29.8103 56.3815 30.2652C56.0556 31.2049 55.5751 32.0835 54.9598 32.8649C54.6031 33.2776 54.1632 33.6104 53.669 33.8414C53.1748 34.0724 52.6374 34.1964 52.092 34.2054L51.6208 34.2785C50.0634 34.5052 48.4906 34.6084 46.917 34.5872ZM43.1149 33.7748C43.7486 33.7748 44.3904 33.7748 45.0241 33.7748C47.1946 33.8703 49.3694 33.7752 51.5233 33.4905L51.9945 33.4174C52.4414 33.4219 52.884 33.3299 53.292 33.1476C53.7 32.9654 54.0638 32.6971 54.3586 32.3612C54.9172 31.6545 55.3513 30.8578 55.6422 30.0053C55.827 29.5154 55.987 29.0165 56.1215 28.5104C57.7464 22.4661 56.7796 15.6988 53.6193 11.2549C52.4841 9.62916 50.992 8.28466 49.2572 7.32432C47.5224 6.36398 45.5909 5.81326 43.6105 5.71431C38.5979 5.3731 33.7722 8.15153 31.0263 12.9447C27.9148 18.3635 28.5891 25.2933 29.1984 31.4107L29.2878 32.2881C29.2783 32.6274 29.3718 32.9616 29.5558 33.2468C29.8971 33.6448 30.5795 33.5474 31.2375 33.4499C31.5066 33.4058 31.7777 33.376 32.0499 33.3605C32.8425 33.3658 33.6343 33.4119 34.4222 33.4986C34.8934 33.4986 35.3727 33.588 35.8439 33.6124C38.3705 33.7423 40.4096 33.7911 42.2781 33.7586L43.1149 33.7748Z" fill="#0C071C"/>
<path d="M33.3092 31.3213C32.6999 26.4468 24.6571 24.9439 24.8521 30.6957C24.8481 32.692 25.5437 34.6266 26.8181 36.1632C27.4695 36.9139 28.3291 37.4544 29.288 37.7162C30.2468 37.978 31.2618 37.9492 32.2043 37.6337" fill="white"/>
<path d="M30.6608 38.3161C29.879 38.3031 29.1082 38.129 28.3968 37.8047C27.6853 37.4804 27.0483 37.0129 26.5256 36.4313C25.1869 34.8382 24.4507 32.8253 24.4459 30.7444C24.3484 27.901 26.1194 26.7474 27.8092 26.6174C29.1998 26.5227 30.5756 26.9509 31.6667 27.8182C32.7579 28.6854 33.4857 29.929 33.7073 31.305C33.7141 31.3573 33.7104 31.4105 33.6965 31.4614C33.6826 31.5123 33.6587 31.56 33.6262 31.6015C33.5936 31.6431 33.5532 31.6778 33.5072 31.7036C33.4611 31.7294 33.4104 31.7458 33.358 31.7518C33.2517 31.7635 33.1451 31.7337 33.0603 31.6686C32.9755 31.6035 32.9191 31.5082 32.903 31.4025C32.7013 30.2365 32.0768 29.1859 31.1491 28.4515C30.2213 27.717 29.0553 27.3504 27.8742 27.4217C26.1438 27.5598 25.1933 28.7622 25.2583 30.6713C25.2558 32.5704 25.9135 34.4112 27.1187 35.8789C27.7127 36.5696 28.499 37.0676 29.3774 37.3093C30.2558 37.551 31.1863 37.5253 32.05 37.2356C32.1004 37.2073 32.1562 37.19 32.2137 37.185C32.2713 37.18 32.3293 37.1873 32.3838 37.2065C32.4383 37.2257 32.4881 37.2563 32.5298 37.2962C32.5716 37.3361 32.6043 37.3845 32.6259 37.4381C32.6474 37.4917 32.6573 37.5493 32.6548 37.607C32.6524 37.6648 32.6376 37.7213 32.6115 37.7729C32.5855 37.8244 32.5487 37.8699 32.5037 37.9061C32.4587 37.9423 32.4065 37.9685 32.3506 37.983C31.8147 38.2042 31.2405 38.3174 30.6608 38.3161Z" fill="#0C071C"/>
<path d="M50.8246 31.3213C51.4421 26.4468 59.4849 24.9439 59.2818 30.6957C59.2858 32.692 58.5901 34.6266 57.3158 36.1632C56.6644 36.9164 55.8034 37.4585 54.8427 37.7204C53.8819 37.9823 52.8649 37.9521 51.9214 37.6337" fill="white"/>
<path d="M53.4731 38.3163C52.894 38.3193 52.32 38.2089 51.7833 37.9914C51.7337 37.9717 51.6884 37.9424 51.6501 37.9052C51.6118 37.8679 51.5812 37.8235 51.5601 37.7745C51.5389 37.7254 51.5277 37.6727 51.527 37.6193C51.5263 37.5659 51.5361 37.5129 51.5558 37.4633C51.5988 37.3639 51.679 37.2853 51.7792 37.2443C51.8794 37.2033 51.9917 37.2032 52.092 37.2439C52.9545 37.533 53.8836 37.5583 54.7606 37.3166C55.6376 37.075 56.4225 36.5773 57.0152 35.8872C58.2252 34.4223 58.8835 32.5797 58.8756 30.6797C58.9406 28.7299 57.9901 27.5276 56.2678 27.4301C55.0853 27.3567 53.9174 27.7224 52.9879 28.457C52.0584 29.1916 51.4327 30.2434 51.2309 31.4109C51.2167 31.5174 51.1609 31.6141 51.0756 31.6796C50.9903 31.745 50.8826 31.774 50.7759 31.7602C50.7235 31.7542 50.6728 31.7378 50.6267 31.712C50.5807 31.6862 50.5403 31.6515 50.5077 31.6099C50.4752 31.5683 50.4513 31.5207 50.4374 31.4698C50.4235 31.4189 50.4198 31.3657 50.4266 31.3134C50.6501 29.9367 51.3795 28.693 52.472 27.8259C53.5645 26.9588 54.9413 26.5308 56.3328 26.6258C58.0145 26.7558 59.7855 27.9094 59.688 30.7528C59.68 32.8317 58.9474 34.8427 57.6164 36.4397C57.0906 37.0188 56.4516 37.4842 55.739 37.8069C55.0265 38.1297 54.2553 38.303 53.4731 38.3163Z" fill="#0C071C"/>
<path d="M33.9104 45.0023C35.071 46.8186 36.6652 48.3178 38.5492 49.3649C41.8362 51.401 45.6862 52.3371 49.5411 52.0378L49.7198 44.9373C46.9337 45.1861 44.1279 45.1071 41.3602 44.7017C38.8913 44.5351 36.4632 43.987 34.1622 43.0769L33.9104 45.0023Z" fill="#0C071C"/>
<path d="M48.0056 52.5334C44.5909 52.4622 41.2558 51.4896 38.338 49.7143C36.3889 48.6381 34.743 47.0872 33.5529 45.2055C33.5126 45.1309 33.4956 45.046 33.5042 44.9617L33.7235 43.0038C33.7308 42.9405 33.7528 42.8797 33.7879 42.8264C33.823 42.7732 33.8702 42.729 33.9256 42.6973C33.9809 42.6657 34.043 42.6475 34.1067 42.6443C34.1704 42.6411 34.2339 42.6529 34.2922 42.6789C36.5537 43.58 38.9402 44.128 41.3683 44.3037C44.1194 44.7124 46.9094 44.7915 49.6792 44.5393C49.7364 44.5349 49.7939 44.542 49.8483 44.5601C49.9027 44.5783 49.9529 44.6071 49.996 44.6449C50.0397 44.6831 50.0742 44.7307 50.0967 44.7842C50.1192 44.8377 50.1292 44.8957 50.126 44.9536L49.9473 52.054C49.9444 52.1519 49.9069 52.2456 49.8414 52.3185C49.776 52.3914 49.6868 52.4387 49.5898 52.4521C49.0637 52.5084 48.5348 52.5355 48.0056 52.5334ZM34.3247 44.9455C35.4512 46.6398 36.9737 48.0341 38.7604 49.0075C41.8714 50.9265 45.4927 51.8531 49.143 51.6641L49.3055 45.3761C46.6252 45.5762 43.931 45.4836 41.2708 45.0998C38.949 44.9135 36.6623 44.419 34.4709 43.6294L34.3247 44.9455Z" fill="#0C071C"/>
<path d="M54.8218 18.1359L54.2043 35.8139C54.1794 36.5695 54.0787 37.3206 53.9037 38.0561C53.2944 40.5517 51.8435 42.7611 49.7954 44.3119C47.7474 45.8627 45.2274 46.6603 42.66 46.5701L41.3602 46.5214C39.8933 46.4721 38.4506 46.134 37.1145 45.5265C35.7785 44.919 34.5754 44.054 33.574 42.9809C32.5727 41.9079 31.7928 40.6479 31.2789 39.2731C30.7651 37.8983 30.5274 36.4357 30.5795 34.969L31.197 17.3235C31.197 17.3235 33.9592 20.9549 41.8639 20.8818C46.3322 20.9269 50.7558 19.9894 54.8218 18.1359Z" fill="white"/>
<path d="M43.0418 46.9763H42.6437L41.3438 46.9276C38.275 46.8196 35.3747 45.4976 33.28 43.2522C31.1854 41.0068 30.068 38.0216 30.1733 34.9527L30.7988 17.2748C30.7991 17.1921 30.8262 17.1118 30.876 17.0459C30.9258 16.98 30.9956 16.932 31.075 16.9092C31.1545 16.8821 31.2406 16.8809 31.3209 16.9057C31.4011 16.9305 31.4715 16.9801 31.5219 17.0473C31.5219 17.0473 34.2434 20.4431 41.6444 20.4431H41.8638C46.2664 20.4848 50.625 19.5643 54.6348 17.7459C54.6983 17.7139 54.7689 17.6987 54.84 17.7018C54.911 17.705 54.98 17.7263 55.0404 17.7639C55.1008 17.8014 55.1505 17.8539 55.1848 17.9162C55.219 17.9785 55.2367 18.0486 55.236 18.1197L54.6186 35.8057C54.5917 36.5885 54.4883 37.3667 54.3099 38.1292C53.6906 40.6511 52.2443 42.8928 50.2019 44.4964C48.1594 46.1001 45.6386 46.9732 43.0418 46.9763ZM31.6112 18.2415L31.0263 34.9771C30.9296 37.821 31.962 40.5877 33.8981 42.673C35.8343 44.7583 38.5168 45.9928 41.3601 46.1071L42.6681 46.1558H43.0337C45.8284 46.1718 48.5186 45.0936 50.5287 43.1518C52.5388 41.2101 53.7093 38.5588 53.7899 35.7651L54.3586 18.7615C50.3927 20.4258 46.1322 21.274 41.8313 21.2555H41.6038C35.8601 21.2555 32.8217 19.322 31.6112 18.2415Z" fill="#0C071C"/>
<path d="M42.5138 28.0229C42.5138 28.0229 46.1859 36.147 44.5611 36.2608C42.9363 36.3745 40.6371 35.1965 40.6371 35.1965" fill="white"/>
<path d="M44.2848 36.6832C42.9413 36.5676 41.6346 36.1836 40.4421 35.554C40.3913 35.5312 40.3457 35.4981 40.3082 35.457C40.2707 35.4158 40.2421 35.3674 40.2241 35.3147C40.2061 35.262 40.1991 35.2062 40.2036 35.1506C40.2081 35.0951 40.2239 35.0411 40.2502 34.992C40.2764 34.9429 40.3125 34.8997 40.3561 34.8651C40.3997 34.8305 40.45 34.8052 40.5038 34.7909C40.5576 34.7765 40.6138 34.7734 40.6689 34.7817C40.724 34.79 40.7767 34.8095 40.8239 34.839C40.8239 34.839 43.0499 36.0089 44.5285 35.8546C44.9104 35.4077 43.8299 31.89 42.1482 28.1854C42.1253 28.1371 42.1124 28.0846 42.1102 28.0311C42.1081 27.9776 42.1168 27.9242 42.1357 27.8742C42.1547 27.8241 42.1836 27.7784 42.2206 27.7397C42.2576 27.7011 42.3021 27.6703 42.3513 27.6493C42.4496 27.6074 42.5603 27.6052 42.6602 27.6431C42.7601 27.6809 42.8415 27.7559 42.8875 27.8524C43.6268 29.4772 45.9909 34.9365 45.2191 36.2689C45.1547 36.3791 45.0652 36.4725 44.9579 36.5417C44.8507 36.6109 44.7286 36.6538 44.6016 36.667L44.2848 36.6832Z" fill="#0C071C"/>
<path d="M44.5448 41.3953C42.109 41.3348 39.7291 40.6524 37.6313 39.4131C37.5784 39.3912 37.5307 39.3585 37.4913 39.317C37.452 39.2755 37.4218 39.2261 37.4029 39.1721C37.3839 39.1182 37.3766 39.0608 37.3813 39.0038C37.3861 38.9468 37.4028 38.8914 37.4305 38.8413C37.4581 38.7912 37.496 38.7475 37.5417 38.7131C37.5874 38.6787 37.6398 38.6543 37.6956 38.6416C37.7514 38.6288 37.8092 38.628 37.8653 38.6391C37.9214 38.6503 37.9746 38.6732 38.0212 38.7063C43.7081 41.834 47.3883 40.0792 47.4289 40.063C47.4767 40.0342 47.53 40.0156 47.5854 40.0083C47.6408 40.001 47.6971 40.0052 47.7508 40.0207C47.8044 40.0362 47.8543 40.0625 47.8974 40.0982C47.9404 40.1338 47.9756 40.1779 48.0008 40.2277C48.026 40.2776 48.0407 40.3321 48.0438 40.3879C48.047 40.4436 48.0387 40.4995 48.0193 40.5519C47.9999 40.6043 47.97 40.6521 47.9313 40.6924C47.8926 40.7327 47.846 40.7646 47.7945 40.786C46.7692 41.2255 45.6597 41.4336 44.5448 41.3953Z" fill="#0C071C"/>
<path d="M37.7693 28.5268C38.191 28.5268 38.5329 27.752 38.5329 26.7963C38.5329 25.8407 38.191 25.0659 37.7693 25.0659C37.3475 25.0659 37.0056 25.8407 37.0056 26.7963C37.0056 27.752 37.3475 28.5268 37.7693 28.5268Z" fill="#0C071C"/>
<path d="M48.0138 28.5268C48.4355 28.5268 48.7774 27.752 48.7774 26.7963C48.7774 25.8407 48.4355 25.0659 48.0138 25.0659C47.592 25.0659 47.2501 25.8407 47.2501 26.7963C47.2501 27.752 47.592 28.5268 48.0138 28.5268Z" fill="#0C071C"/>
<path d="M57.3239 56.0755C57.2158 56.0749 57.1116 56.0344 57.0315 55.9617C52.6364 51.526 49.7198 52.4115 49.6711 52.4278C49.5687 52.4611 49.4573 52.4524 49.3614 52.4037C49.2654 52.3549 49.1927 52.2701 49.1593 52.1678C49.1256 52.0665 49.1331 51.956 49.1802 51.8603C49.2274 51.7645 49.3103 51.6911 49.4111 51.656C49.5411 51.6072 52.8151 50.5511 57.6083 55.3849C57.6464 55.4227 57.6766 55.4676 57.6972 55.5171C57.7178 55.5666 57.7284 55.6197 57.7284 55.6733C57.7284 55.727 57.7178 55.7801 57.6972 55.8296C57.6766 55.8791 57.6464 55.924 57.6083 55.9617C57.5713 55.9993 57.527 56.0288 57.478 56.0484C57.4291 56.0679 57.3766 56.0772 57.3239 56.0755Z" fill="#0C071C"/>
<path d="M129.23 169.593L123.381 128.973L77.8859 129.842C75.0258 142.924 73.273 156.224 72.6459 169.601L129.23 169.593Z" fill="#0C071C"/>
<path d="M129.23 169.999H72.6134C72.5586 169.999 72.5045 169.988 72.4541 169.967C72.4037 169.945 72.3582 169.914 72.3203 169.875C72.2823 169.835 72.2527 169.788 72.2333 169.737C72.2139 169.686 72.205 169.631 72.2072 169.577C72.8484 156.184 74.6066 142.869 77.4634 129.769C77.4844 129.682 77.5329 129.604 77.6017 129.547C77.6705 129.49 77.756 129.457 77.8453 129.452L123.34 128.583C123.44 128.576 123.538 128.607 123.615 128.671C123.692 128.734 123.742 128.825 123.754 128.924L129.604 169.544C129.612 169.602 129.608 169.662 129.591 169.718C129.574 169.774 129.545 169.826 129.506 169.869C129.471 169.908 129.428 169.939 129.381 169.962C129.334 169.984 129.282 169.997 129.23 169.999ZM73.0358 169.187H128.767L123.031 129.379L78.1865 130.248C75.4193 143.066 73.7075 156.089 73.0683 169.187H73.0358Z" fill="#0C071C"/>
<path d="M89.3165 47.4314C89.3165 47.4314 74.0432 50.1692 69.8187 58.8051C65.5942 67.441 66.9265 77.4904 69.8187 81.9181C72.7109 86.3457 75.5949 131.044 76.651 132.612C77.7072 134.18 93.3866 138.835 104.663 137.86C122.788 136.284 126.289 132.612 126.289 132.612L124.973 91.1064C124.973 91.1064 135.477 99.7748 140.734 89.7903C145.99 79.8058 119.725 58.732 116.833 55.7504C113.94 52.7689 89.3165 47.4314 89.3165 47.4314Z" fill="#4ADBC8"/>
<path d="M89.3571 54.9136C88.6909 51.1115 89.2596 46.7895 88.7965 43.2312L103.2 44.856C103.599 46.7164 104.07 48.5687 104.638 50.3804C105.451 53.0532 107.433 55.1086 106.174 57.9601C105.613 59.2315 104.756 60.3503 103.675 61.2234C102.594 62.0964 101.32 62.6983 99.9589 62.9789C98.5979 63.2596 97.1896 63.2108 95.8513 62.8366C94.513 62.4624 93.2836 61.7737 92.2655 60.8279C90.6603 59.2384 89.636 57.1554 89.3571 54.9136Z" fill="white"/>
<path d="M98.253 63.5414C95.9331 63.5444 93.6971 62.6744 91.9893 61.1042C90.3196 59.4674 89.2518 57.3147 88.959 54.9949C88.6488 52.8269 88.5265 50.636 88.5934 48.4469C88.6365 46.7275 88.5687 45.007 88.3903 43.2963C88.3818 43.2345 88.3877 43.1716 88.4074 43.1124C88.4271 43.0532 88.4602 42.9994 88.5041 42.9551C88.5478 42.9123 88.6001 42.8793 88.6575 42.8582C88.7149 42.8372 88.7762 42.8287 88.8372 42.8332L103.241 44.458C103.326 44.4675 103.406 44.503 103.47 44.5597C103.534 44.6165 103.579 44.6916 103.599 44.7749C104.013 46.7003 104.492 48.5444 105.02 50.2667C105.261 50.9925 105.552 51.7009 105.89 52.3871C106.702 54.1257 107.514 55.9211 106.548 58.1308C105.952 59.4551 105.054 60.6208 103.925 61.5339C102.796 62.4469 101.468 63.0818 100.048 63.3871C99.4568 63.5 98.8551 63.5517 98.253 63.5414ZM89.7552 54.8487C90.0048 57.0077 90.9885 59.0154 92.5417 60.5355C93.5113 61.4388 94.683 62.0968 95.9588 62.4547C97.2347 62.8126 98.5776 62.8599 99.8755 62.5927C101.173 62.3255 102.388 61.7515 103.419 60.9188C104.45 60.086 105.266 59.0186 105.8 57.8059C106.613 55.9292 105.946 54.4425 105.15 52.7283C104.801 52.0098 104.5 51.2689 104.249 50.5104C103.737 48.8856 103.266 47.074 102.859 45.2379L89.2596 43.7268C89.3882 45.3049 89.437 46.8884 89.4058 48.4713C89.3408 50.614 89.4576 52.7583 89.7552 54.8812V54.8487Z" fill="#0C071C"/>
<path d="M112.689 31.8251C113.778 29.2822 113.843 26.4713 113.859 23.571C113.859 17.478 117.109 11.7261 118.872 5.90116L112.876 7.52597L115.598 2.28595L104.565 5.9499C106.158 4.50376 107.202 2.5525 107.523 0.425537C105.02 2.944 101.186 3.42332 97.6843 4.04887C95.247 4.47132 92.6961 5.12125 90.7301 6.65669C89.3815 7.7047 87.0824 9.82508 86.4649 11.3605C86.0912 12.2867 85.7338 13.3347 84.8401 13.7978C84.4222 13.9854 83.9936 14.1482 83.5565 14.2852C83.0718 14.5272 82.6443 14.8697 82.3025 15.29C81.9607 15.7103 81.7124 16.1986 81.5742 16.7224C81.2971 17.7574 81.1766 18.8282 81.2168 19.8989C81.2168 22.1899 81.298 24.4809 81.3224 26.7719C81.3224 28.3073 80.705 30.5333 81.2737 31.9632C82.1917 34.2866 85.4657 34.9447 87.5698 35.5946C90.9657 36.6426 94.589 36.0902 98.0742 36.0414C101.324 35.9846 104.622 36.2689 107.864 35.749C109.245 35.5296 110.195 35.5296 111.113 34.4085C111.759 33.627 112.29 32.757 112.689 31.8251Z" fill="white"/>
<path d="M92.5661 36.602C90.8452 36.6415 89.1282 36.4224 87.4723 35.9521L86.6599 35.7084C84.4908 35.0828 81.7855 34.3029 80.9162 32.085C80.5918 30.8925 80.5501 29.6407 80.7944 28.4292C80.8722 27.869 80.9183 27.3048 80.9325 26.7394C80.9325 25.8539 80.9325 24.9602 80.8756 24.0747C80.8756 22.7017 80.8106 21.2719 80.8268 19.8664C80.7819 18.7543 80.908 17.6419 81.2006 16.5681C81.3614 15.9958 81.6414 15.464 82.0222 15.0075C82.4031 14.5511 82.8761 14.1804 83.4103 13.9196C83.5972 13.8384 83.784 13.7815 83.979 13.7165C84.213 13.6561 84.4393 13.5688 84.6533 13.4565C85.3127 12.9363 85.7836 12.2144 85.9938 11.4012L86.0831 11.1899C86.7493 9.56512 89.154 7.34725 90.4701 6.31549C92.5418 4.69068 95.2389 4.04888 97.6112 3.63455L98.4236 3.48832C101.673 2.92775 104.996 2.35094 107.214 0.116826C107.273 0.0572083 107.35 0.0180107 107.433 0.00487193C107.517 -0.00826686 107.602 0.0053305 107.677 0.0437097C107.755 0.0808475 107.819 0.141807 107.86 0.217761C107.901 0.293714 107.916 0.380716 107.904 0.466161C107.653 2.13965 106.969 3.71875 105.922 5.04813L115.476 1.88787C115.553 1.86089 115.636 1.8581 115.714 1.87989C115.793 1.90168 115.863 1.947 115.915 2.00974C115.966 2.07115 115.998 2.1463 116.006 2.22579C116.015 2.30527 116 2.38555 115.963 2.45656L113.689 6.8923L118.791 5.51121C118.86 5.49173 118.934 5.49125 119.004 5.50982C119.074 5.52839 119.138 5.56533 119.189 5.61682C119.238 5.67069 119.273 5.73624 119.29 5.80731C119.307 5.87837 119.306 5.95261 119.286 6.02302C118.734 7.86719 118.019 9.73572 117.336 11.5393C115.85 15.4388 114.314 19.4684 114.29 23.5791C114.29 26.6825 114.168 29.4528 113.088 31.9875C112.675 32.9435 112.128 33.8353 111.463 34.636C111.084 35.0647 110.619 35.4087 110.098 35.6453C109.577 35.8819 109.013 36.0058 108.441 36.009L107.953 36.0902C105.637 36.3922 103.3 36.4928 100.966 36.3908C100.008 36.3908 99.0573 36.3908 98.0986 36.3908C97.2862 36.3908 96.4738 36.4395 95.6614 36.4801C94.6215 36.5533 93.5979 36.602 92.5661 36.602ZM106.864 1.51417C104.549 3.25272 101.527 3.78078 98.5861 4.28447L97.7737 4.43071C95.507 4.82879 92.8992 5.44622 90.9901 6.95729C89.3652 8.22465 87.383 10.2069 86.8549 11.4986L86.7737 11.7017C86.5046 12.6851 85.905 13.5458 85.0757 14.139C84.8186 14.2788 84.5459 14.3879 84.2633 14.4639C84.1008 14.5208 83.9303 14.5695 83.7678 14.6427C83.3357 14.8589 82.9548 15.165 82.6507 15.5405C82.3466 15.916 82.1264 16.3523 82.0048 16.8199C81.7363 17.8148 81.6212 18.8449 81.6636 19.8746C81.6636 21.2638 81.6636 22.6855 81.7124 24.0585C81.7124 24.944 81.753 25.8376 81.7692 26.7313C81.7559 27.3318 81.7098 27.9312 81.6311 28.5267C81.4115 29.601 81.4309 30.7104 81.688 31.7763C82.4273 33.6286 84.9376 34.3435 86.9118 34.9203L87.7242 35.164C90.2508 35.9765 92.9723 35.814 95.6045 35.684C96.4169 35.684 97.2293 35.6027 98.0986 35.5946C99.0573 35.5946 100.024 35.5946 100.983 35.5946C103.27 35.6919 105.561 35.5941 107.831 35.3022L108.327 35.2209C109.415 35.0666 110.13 34.961 110.829 34.1079C111.444 33.3734 111.948 32.5522 112.324 31.6707C113.347 29.2822 113.445 26.6988 113.461 23.5466C113.461 19.2978 115.086 15.1951 116.556 11.2224C117.158 9.66261 117.767 8.05404 118.271 6.46172L112.99 7.89156C112.914 7.91006 112.834 7.90694 112.759 7.88255C112.685 7.85815 112.618 7.81345 112.568 7.75345C112.52 7.69155 112.491 7.61754 112.484 7.53994C112.477 7.46234 112.492 7.38429 112.527 7.31475L114.785 2.96025L104.695 6.29112C104.607 6.32079 104.511 6.31922 104.424 6.28668C104.337 6.25415 104.263 6.19261 104.216 6.11239C104.168 6.03221 104.151 5.93786 104.165 5.84581C104.18 5.75376 104.227 5.66985 104.297 5.6087C105.509 4.50258 106.397 3.08699 106.864 1.51417Z" fill="#0C071C"/>
<path d="M106.556 31.0125C107.197 25.8619 115.663 24.302 115.452 30.3545C115.461 32.4585 114.727 34.4982 113.38 36.1144C112.691 36.9058 111.783 37.4739 110.77 37.7459C109.756 38.018 108.685 37.9817 107.693 37.6418" fill="white"/>
<path d="M109.342 38.3568C108.736 38.3612 108.135 38.2481 107.571 38.0237C107.522 38.004 107.476 37.9747 107.438 37.9375C107.4 37.9003 107.369 37.8559 107.348 37.8069C107.327 37.7578 107.316 37.7051 107.315 37.6517C107.314 37.5983 107.324 37.5453 107.344 37.4957C107.363 37.4453 107.391 37.3993 107.428 37.3604C107.465 37.3215 107.51 37.2905 107.559 37.2692C107.609 37.248 107.662 37.2369 107.715 37.2367C107.769 37.2366 107.822 37.2473 107.872 37.2682C108.783 37.5762 109.766 37.6047 110.694 37.3499C111.622 37.0951 112.453 36.5687 113.079 35.8384C114.366 34.2896 115.062 32.3354 115.045 30.3221C115.151 27.3812 113.144 26.9019 112.283 26.8369C111.035 26.7585 109.801 27.1437 108.819 27.9189C107.837 28.694 107.176 29.8044 106.962 31.037C106.946 31.1433 106.89 31.2395 106.805 31.3059C106.721 31.3723 106.614 31.404 106.507 31.3945C106.4 31.3803 106.302 31.3248 106.236 31.2398C106.169 31.1548 106.138 31.047 106.15 30.9396C106.383 29.4946 107.149 28.1892 108.296 27.2798C109.442 26.3703 110.888 25.9226 112.348 26.0245C114.111 26.1707 115.963 27.3731 115.858 30.3465C115.861 32.544 115.09 34.6725 113.681 36.3583C113.133 36.9705 112.465 37.4638 111.719 37.8076C110.972 38.1513 110.164 38.3383 109.342 38.3568Z" fill="#0C071C"/>
<path d="M89.3165 47.4315C90.5358 49.3418 92.2108 50.9192 94.1909 52.0216C97.4405 53.9632 102.315 56.1892 106.32 55.718L105.922 47.3827C102.974 47.6483 100.004 47.5665 97.0749 47.139C94.4737 46.9495 91.9171 46.3603 89.4952 45.3923L89.3165 47.4315Z" fill="#0C071C"/>
<path d="M105.142 56.1892C100.975 56.1892 96.4169 53.8495 93.9472 52.3709C91.9006 51.2385 90.1713 49.6098 88.9184 47.6346C88.8775 47.5574 88.8605 47.4697 88.8697 47.3827L89.0972 45.3274C89.1048 45.2637 89.1271 45.2027 89.1624 45.1491C89.1976 45.0955 89.2448 45.0509 89.3003 45.0186C89.3566 44.9888 89.4193 44.9731 89.483 44.9731C89.5468 44.9731 89.6095 44.9888 89.6658 45.0186C92.0504 45.9638 94.5654 46.5391 97.1237 46.7247C100.02 47.1542 102.957 47.2387 105.873 46.9765C105.928 46.9675 105.984 46.9709 106.038 46.9863C106.091 47.0018 106.141 47.029 106.182 47.0659C106.225 47.1019 106.261 47.1464 106.286 47.1968C106.311 47.2471 106.326 47.3022 106.328 47.3584L106.694 55.718C106.699 55.8197 106.664 55.9193 106.598 55.9964C106.531 56.0734 106.438 56.1221 106.336 56.1324C105.94 56.1761 105.541 56.1951 105.142 56.1892ZM89.7065 47.3421C90.8909 49.1446 92.4971 50.631 94.3859 51.6723C96.9287 53.1996 101.698 55.6449 105.881 55.3525L105.548 47.8052C102.711 48.0226 99.8588 47.9272 97.0425 47.5209C94.5902 47.3203 92.1754 46.7958 89.8608 45.961L89.7065 47.3421Z" fill="#0C071C"/>
<path d="M110.577 19.9476C110.951 20.3527 111.172 20.8756 111.203 21.4261C111.503 23.4653 111.048 25.9025 110.975 27.9254C110.861 31.175 110.642 34.4247 110.642 37.6743C110.618 38.4689 110.509 39.2587 110.317 40.0303C109.681 42.6606 108.157 44.9909 106.002 46.6279C103.847 48.2648 101.193 49.1081 98.4885 49.0155L97.1156 49.0073C94.5774 48.9205 92.1356 48.0141 90.1556 46.4236C88.1756 44.8332 86.7639 42.6443 86.1318 40.1846C85.2544 36.8212 83.9952 33.0192 84.3851 29.5096C84.4745 28.6972 84.9538 27.6817 85.7419 27.8848C86.0472 27.986 86.312 28.1824 86.4974 28.4453L89.0727 31.3456C89.2216 31.5401 89.4172 31.6938 89.6414 31.7924C90.3888 32.0443 90.9088 31.0288 91.0062 30.2408C91.2256 28.551 91.1769 26.8286 91.4287 25.147C91.5861 23.4322 92.3125 21.8193 93.4922 20.565C94.0917 19.954 94.8715 19.5517 95.7169 19.4171C96.5622 19.2826 97.4284 19.4229 98.1879 19.8176C99.7071 20.7518 100.39 22.9535 102.152 23.3028C103.282 23.5222 104.378 22.8479 105.337 22.2061C106.832 21.1337 109.359 18.8264 110.577 19.9476Z" fill="white"/>
<path d="M98.8866 49.4869H98.4723L97.0993 49.43C94.4722 49.3383 91.9452 48.3995 89.8954 46.7538C87.8456 45.1081 86.3829 42.8437 85.7256 40.2986C85.5956 39.7786 85.4494 39.2424 85.3032 38.6738C84.4908 35.6272 83.6296 32.4751 83.9708 29.4042C84.0211 28.7069 84.3418 28.0568 84.8645 27.5925C85.0006 27.4923 85.1565 27.4224 85.3218 27.3874C85.4872 27.3523 85.6581 27.353 85.8231 27.3894C86.2133 27.5099 86.5549 27.7518 86.798 28.08L89.3733 30.9722C89.4724 31.115 89.6067 31.2297 89.7633 31.3052C89.803 31.3273 89.8478 31.3389 89.8933 31.3389C89.9387 31.3389 89.9835 31.3273 90.0232 31.3052C90.3562 30.9995 90.5596 30.5781 90.5919 30.1272C90.6976 29.3148 90.7382 28.5024 90.7788 27.7469C90.8194 26.9914 90.8844 25.9271 91.0144 25.0172C91.1867 23.2154 91.9559 21.5227 93.1998 20.2078C93.8628 19.5324 94.7259 19.0887 95.6609 18.9424C96.596 18.796 97.5533 18.9549 98.391 19.3954C99.058 19.862 99.6404 20.4389 100.113 21.1014C100.592 21.9059 101.336 22.518 102.217 22.8318C103.176 23.0187 104.167 22.4256 105.11 21.8001C105.378 21.6214 105.678 21.3939 105.995 21.1583C107.62 19.9803 109.602 18.5017 110.87 19.6472C111.311 20.1179 111.578 20.7258 111.625 21.3695C111.775 22.8703 111.75 24.3832 111.552 25.8784C111.487 26.6176 111.422 27.3082 111.398 27.9744C111.398 29.063 111.308 30.1516 111.26 31.224C111.162 33.3525 111.065 35.5541 111.065 37.7232C111.034 38.5446 110.923 39.361 110.731 40.1605C110.09 42.8186 108.573 45.1836 106.424 46.8752C104.276 48.5668 101.621 49.4867 98.8866 49.4869ZM85.5713 28.2018C85.4897 28.2023 85.4103 28.2279 85.3438 28.275C85.0152 28.6087 84.8189 29.0504 84.7913 29.5179C84.4664 32.4345 85.295 35.5135 86.0993 38.4544C86.2456 38.9987 86.3837 39.5349 86.5218 40.0792C87.1347 42.4525 88.4979 44.5642 90.4083 46.0999C92.3188 47.6355 94.6742 48.5129 97.1237 48.6014L98.5048 48.6582C99.9942 48.7125 101.48 48.4723 102.876 47.9512C104.272 47.4302 105.552 46.6387 106.642 45.6221C107.732 44.6054 108.61 43.3837 109.227 42.0268C109.844 40.67 110.187 39.2047 110.236 37.7151C110.236 35.5541 110.333 33.3444 110.431 31.2159C110.488 30.1272 110.537 29.0386 110.569 27.9662C110.569 27.2838 110.658 26.577 110.723 25.8296C110.915 24.3995 110.943 22.9521 110.805 21.5157C110.778 21.0588 110.604 20.6227 110.309 20.2728C109.553 19.5822 107.782 20.8821 106.483 21.8407C106.158 22.0844 105.841 22.3119 105.565 22.4988C104.492 23.2218 103.33 23.9042 102.071 23.6524C100.812 23.4005 100.186 22.515 99.4878 21.6376C99.0734 21.0473 98.5625 20.531 97.9767 20.1103C96.6119 19.2979 94.7921 19.8422 93.7685 20.8089C92.6545 22.0006 91.9711 23.5305 91.8268 25.1553C91.6968 26.0246 91.6481 26.9345 91.5993 27.8119C91.5506 28.6893 91.5099 29.4367 91.4125 30.2491C91.3798 30.5915 91.2789 30.924 91.1156 31.2268C90.9524 31.5295 90.7301 31.7966 90.462 32.012C90.3232 32.1033 90.165 32.1611 90.0001 32.1808C89.8351 32.2006 89.6678 32.1817 89.5114 32.1258C89.2201 32.0069 88.9652 31.8136 88.7721 31.5652L86.1968 28.6649C86.0613 28.4713 85.8721 28.3217 85.6525 28.2343L85.5713 28.2018Z" fill="#0C071C"/>
<path d="M101.949 29.8347C101.949 29.8347 105.808 38.3487 104.102 38.5031C102.396 38.6575 99.9671 37.3901 99.9671 37.3901" fill="white"/>
<path d="M103.802 38.9254C102.396 38.8053 101.029 38.4048 99.7802 37.7474C99.7325 37.7226 99.6901 37.6886 99.6557 37.6473C99.6212 37.606 99.5953 37.5583 99.5794 37.5069C99.5635 37.4555 99.5581 37.4014 99.5632 37.3479C99.5684 37.2944 99.5842 37.2424 99.6096 37.195C99.6336 37.1476 99.6668 37.1054 99.7074 37.071C99.748 37.0366 99.795 37.0107 99.8457 36.9948C99.8965 36.9789 99.9499 36.9734 100.003 36.9784C100.056 36.9835 100.107 36.9991 100.154 37.0244C100.154 37.0244 102.502 38.2511 104.062 38.1049C104.492 37.6662 103.339 33.8723 101.576 29.9808C101.539 29.8841 101.541 29.7771 101.58 29.6816C101.62 29.5861 101.694 29.5092 101.789 29.4668C101.883 29.4243 101.99 29.4194 102.088 29.453C102.185 29.4866 102.267 29.5563 102.315 29.6477C103.127 31.37 105.565 37.0975 104.752 38.4867C104.687 38.6005 104.595 38.6969 104.485 38.7676C104.375 38.8384 104.249 38.8814 104.118 38.8929L103.802 38.9254Z" fill="#0C071C"/>
<path d="M96.8475 30.6472C97.2917 30.6472 97.6518 29.8324 97.6518 28.8274C97.6518 27.8223 97.2917 27.0076 96.8475 27.0076C96.4033 27.0076 96.0432 27.8223 96.0432 28.8274C96.0432 29.8324 96.4033 30.6472 96.8475 30.6472Z" fill="#0C071C"/>
<path d="M105.735 30.6472C106.179 30.6472 106.539 29.8324 106.539 28.8274C106.539 27.8223 106.179 27.0076 105.735 27.0076C105.291 27.0076 104.931 27.8223 104.931 28.8274C104.931 29.8324 105.291 30.6472 105.735 30.6472Z" fill="#0C071C"/>
<path d="M88.6421 31.0125C88.0003 25.8619 79.5269 24.302 79.7057 30.3545C79.6966 32.4585 80.4302 34.4982 81.7773 36.1144C82.4664 36.9049 83.3753 37.4723 84.3881 37.7443C85.4009 38.0163 86.4717 37.9806 87.4641 37.6418" fill="white"/>
<path d="M85.8556 38.3568C85.0358 38.3423 84.2278 38.1596 83.4815 37.82C82.7353 37.4804 82.0667 36.9912 81.5173 36.3827C80.1054 34.6976 79.3317 32.5693 79.3319 30.3708C79.2344 27.3974 81.0867 26.1951 82.8497 26.0488C84.3089 25.9472 85.7534 26.3952 86.899 27.3048C88.0446 28.2143 88.8084 29.5196 89.0402 30.9639C89.054 31.0705 89.025 31.1783 88.9596 31.2636C88.8941 31.3489 88.7975 31.4047 88.6909 31.4188C88.5834 31.4304 88.4757 31.3995 88.3907 31.3327C88.3057 31.2659 88.2501 31.1685 88.2359 31.0614C88.0205 29.8295 87.3588 28.7202 86.3772 27.9454C85.3956 27.1706 84.1629 26.7846 82.9147 26.8612C82.0454 26.9262 80.0469 27.4056 80.1443 30.3465C80.1415 32.3499 80.8367 34.2918 82.1104 35.8383C82.7408 36.5634 83.5715 37.0859 84.498 37.3403C85.4246 37.5947 86.4056 37.5696 87.3179 37.2682C87.3675 37.2479 87.4206 37.2376 87.4742 37.2379C87.5278 37.2381 87.5808 37.2489 87.6302 37.2697C87.6797 37.2904 87.7245 37.3207 87.7622 37.3588C87.7999 37.3968 87.8298 37.442 87.85 37.4916C87.8703 37.5412 87.8806 37.5943 87.8803 37.6479C87.8801 37.7015 87.8693 37.7545 87.8485 37.8039C87.8278 37.8533 87.7975 37.8982 87.7594 37.9359C87.7214 37.9736 87.6762 38.0034 87.6266 38.0237C87.0633 38.248 86.4619 38.3612 85.8556 38.3568Z" fill="#0C071C"/>
<path d="M113.754 89.1729C110.195 90.9196 128.231 95.3391 133.454 95.0791C138.678 94.8192 145.048 91.927 144.633 89.2135C144.219 86.5001 138.134 76.4344 134.697 73.7209C134.697 73.7209 124.006 75.817 122.763 77.6611C121.875 79.2399 121.257 80.9561 120.935 82.7387L113.754 89.1729Z" fill="white"/>
<path d="M133.04 95.4933C128.223 95.4933 113.542 92.3087 112.909 89.8958C112.844 89.6521 112.844 89.189 113.518 88.8316L120.562 82.5273C120.89 80.7365 121.519 79.0142 122.422 77.4335C123.722 75.5081 133.503 73.534 134.608 73.3227C134.666 73.3094 134.726 73.3098 134.784 73.3239C134.842 73.338 134.896 73.3654 134.941 73.404C138.378 76.1418 144.584 86.2156 145.031 89.1565C145.071 89.533 145.03 89.9138 144.909 90.2727C144.788 90.6316 144.592 90.9603 144.333 91.2363C142.594 93.3648 137.72 95.2983 133.463 95.4852L133.04 95.4933ZM134.584 74.1514C130.522 74.9638 123.925 76.6617 123.096 77.8885C122.246 79.4051 121.653 81.0523 121.342 82.7629C121.323 82.8527 121.278 82.9349 121.212 82.9985L114.022 89.4327C113.997 89.459 113.966 89.4786 113.932 89.4896C113.729 89.5952 113.697 89.6602 113.697 89.6602C113.851 91.0576 127.963 94.884 133.43 94.6322C137.419 94.4291 142.123 92.6255 143.707 90.6839C143.892 90.4939 144.035 90.2667 144.126 90.0175C144.217 89.7682 144.254 89.5025 144.235 89.2378C143.853 86.7924 138.061 77.0842 134.584 74.192V74.1514Z" fill="#0C071C"/>
<path d="M97.1237 75.9062C97.1237 75.9062 87.4154 81.9506 85.4738 89.1729C85.4738 89.1729 96.7418 101.253 101.096 101.253C105.451 101.253 124.112 83.0636 129.531 80.3745C129.531 80.3745 111.52 78.8797 104.013 81.7718L97.1237 75.9062Z" fill="white"/>
<path d="M101.096 101.659C96.6199 101.659 85.6606 89.9445 85.1731 89.4733C85.1279 89.422 85.096 89.3602 85.0804 89.2936C85.0648 89.227 85.066 89.1575 85.0838 89.0915C87.0417 81.7798 96.5062 75.833 96.9043 75.5893C96.9733 75.5372 97.0575 75.509 97.1439 75.509C97.2304 75.509 97.3145 75.5372 97.3836 75.5893L104.118 81.2761C111.747 78.4977 128.856 79.8706 129.587 79.9356C129.676 79.9414 129.76 79.9765 129.826 80.0353C129.892 80.0942 129.937 80.1735 129.953 80.2606C129.969 80.3476 129.957 80.4376 129.917 80.5168C129.877 80.596 129.813 80.6601 129.734 80.6993C127.516 81.8042 122.95 85.5737 118.124 89.6358C111.073 95.5663 103.777 101.659 101.096 101.659ZM85.9287 89.059C87.2935 90.505 97.2374 100.847 101.096 100.847C103.485 100.847 110.983 94.5833 117.604 89.0508C121.748 85.59 125.728 82.2916 128.206 80.6831C123.925 80.415 110.333 79.7813 104.183 82.1535C104.114 82.1786 104.039 82.185 103.967 82.1722C103.894 82.1594 103.826 82.1277 103.769 82.0804L97.0911 76.3935C95.5882 77.4416 87.7566 82.8034 85.9287 89.059Z" fill="#0C071C"/>
<path d="M129.555 80.7805C129.487 80.7797 129.421 80.7622 129.361 80.7297C129.302 80.6971 129.251 80.6504 129.214 80.5937C129.156 80.5032 129.136 80.3933 129.159 80.2882C129.182 80.1831 129.245 80.0914 129.336 80.0331C130.345 79.4085 131.46 78.9735 132.626 78.7495C132.678 78.7377 132.732 78.7366 132.785 78.7462C132.838 78.7559 132.888 78.7761 132.933 78.8057C132.978 78.8353 133.016 78.8737 133.046 78.9185C133.075 78.9633 133.096 79.0136 133.105 79.0664C133.124 79.1729 133.101 79.2827 133.04 79.3722C132.98 79.4618 132.886 79.5241 132.78 79.5457C131.72 79.7523 130.705 80.1456 129.782 80.7074C129.716 80.7545 129.637 80.78 129.555 80.7805Z" fill="#0C071C"/>
<path d="M102.047 80.6914C101.642 81.2033 101.433 81.8425 101.457 82.4945C101.481 83.1466 101.736 83.7688 102.177 84.2498C102.93 84.7953 103.861 85.0361 104.785 84.9241C106.548 84.8591 108.847 84.5179 110.309 83.4211C111.455 82.56 111.934 80.7158 110.91 79.5703C108.92 77.4418 103.615 78.5954 102.047 80.6914Z" fill="white"/>
<path d="M104.476 85.3627C103.55 85.4156 102.636 85.1265 101.909 84.5503C101.4 84.0058 101.102 83.2979 101.068 82.5536C101.034 81.8093 101.265 81.0771 101.722 80.4882C102.689 79.1721 104.972 78.1647 107.206 78.051C107.927 77.9593 108.659 78.0267 109.351 78.2484C110.043 78.4702 110.678 78.841 111.211 79.3346C111.461 79.6121 111.65 79.9394 111.765 80.2951C111.88 80.6507 111.918 81.0266 111.877 81.3981C111.829 81.865 111.687 82.3173 111.459 82.7278C111.232 83.1383 110.923 83.4985 110.553 83.7866C108.879 85.0458 106.231 85.322 104.801 85.4114L104.476 85.3627ZM107.653 78.8634H107.254C105.248 78.969 103.192 79.8627 102.38 80.9757C102.039 81.4061 101.859 81.9426 101.872 82.4918C101.886 83.0411 102.091 83.5683 102.453 83.9816C103.126 84.47 103.962 84.6769 104.785 84.5584C106.117 84.5096 108.579 84.2659 110.073 83.1367C110.355 82.9188 110.589 82.6457 110.76 82.3342C110.932 82.0226 111.039 81.6792 111.073 81.325C111.106 81.0673 111.083 80.8055 111.006 80.5574C110.929 80.3093 110.799 80.0807 110.626 79.887C110.229 79.5171 109.76 79.233 109.249 79.0527C108.737 78.8723 108.194 78.7996 107.653 78.839V78.8634Z" fill="#0C071C"/>
<path d="M99.959 42.1994C99.2947 42.2575 98.6269 42.1376 98.0244 41.852C97.4218 41.5665 96.9062 41.1255 96.5306 40.5746C96.4721 40.4829 96.4505 40.3724 96.4701 40.2654C96.4896 40.1584 96.549 40.0628 96.6362 39.9978C96.6758 39.9662 96.7213 39.9429 96.7701 39.9295C96.8188 39.916 96.8699 39.9126 96.92 39.9194C96.9701 39.9263 97.0183 39.9432 97.0617 39.9693C97.1051 39.9953 97.1428 40.0299 97.1724 40.0709L97.2212 40.144C98.0336 41.4195 99.8777 41.7201 102.453 40.9564C102.504 40.9403 102.558 40.9347 102.612 40.94C102.665 40.9453 102.717 40.9613 102.764 40.9871C102.811 41.0129 102.852 41.048 102.885 41.0902C102.918 41.1324 102.943 41.1808 102.957 41.2326C102.985 41.336 102.972 41.4462 102.92 41.5401C102.869 41.634 102.783 41.7043 102.681 41.7363C101.799 42.0163 100.883 42.1721 99.959 42.1994Z" fill="#0C071C"/>
<path d="M81.2737 135.123C81.2334 135.13 81.1921 135.13 81.1518 135.123C81.0499 135.091 80.9646 135.02 80.9144 134.926C80.8642 134.832 80.8532 134.721 80.8837 134.619C80.9036 134.565 80.934 134.515 80.9731 134.473C81.4036 133.49 85.4819 118.964 85.0351 116.153C84.6127 113.18 79.99 90.7166 79.9413 90.4891C79.9219 90.3837 79.9441 90.275 80.0031 90.1856C80.0622 90.0962 80.1536 90.0332 80.2582 90.0098C80.3105 89.998 80.3647 89.9968 80.4175 90.0065C80.4703 90.0162 80.5206 90.0364 80.5654 90.066C80.6101 90.0956 80.6485 90.1339 80.678 90.1787C80.7076 90.2235 80.7278 90.2738 80.7375 90.3266C80.9324 91.2528 85.4088 113.033 85.8394 116.031C86.2537 118.875 82.151 134.505 81.5174 135.041C81.4463 135.093 81.3613 135.121 81.2737 135.123Z" fill="#0C071C"/>
<path d="M120.797 59.8123C120.696 59.8095 120.598 59.7723 120.521 59.7067C118.825 58.309 116.837 57.3095 114.704 56.7821C111.121 55.9209 106.913 54.8485 106.913 54.8485L107.108 54.0361C107.108 54.0361 111.316 55.1085 114.899 55.9615C117.163 56.5196 119.271 57.5834 121.065 59.0731C121.103 59.1108 121.134 59.1557 121.154 59.2052C121.175 59.2547 121.185 59.3078 121.185 59.3615C121.185 59.4151 121.175 59.4682 121.154 59.5177C121.134 59.5672 121.103 59.6121 121.065 59.6499C121.001 59.737 120.904 59.7954 120.797 59.8123Z" fill="#0C071C"/>
<path d="M85.5062 58.9757C85.4477 58.9915 85.386 58.9915 85.3275 58.9757C85.2794 58.9523 85.2364 58.9196 85.201 58.8796C85.1656 58.8395 85.1384 58.7929 85.1211 58.7423C85.1037 58.6917 85.0965 58.6382 85.0999 58.5849C85.1032 58.5315 85.1171 58.4793 85.1406 58.4313C86.0221 56.7248 87.4532 55.3652 89.2027 54.5724C89.3052 54.5377 89.4171 54.5436 89.5153 54.5889C89.6136 54.6343 89.6907 54.7156 89.7308 54.8161C89.7673 54.9174 89.7622 55.0291 89.7165 55.1265C89.6708 55.224 89.5883 55.2994 89.487 55.3361C87.9269 56.0531 86.6515 57.2713 85.8637 58.7969C85.824 58.8544 85.7705 58.901 85.708 58.9322C85.6455 58.9635 85.5761 58.9784 85.5062 58.9757Z" fill="#0C071C"/>
<path d="M99.9671 75.9064L84.1901 56.9936C81.0949 53.289 77.2603 51.721 73.2876 54.4588C69.315 57.1967 62.7264 66.45 68.6244 77.8724C71.9878 84.3717 86.6111 96.9152 86.6111 96.9152L101.503 77.4825L99.9671 75.9064Z" fill="#0C071C"/>
<path d="M86.6112 97.3213C86.5154 97.3226 86.4226 97.2878 86.3512 97.2238C85.75 96.712 71.6223 84.5665 68.2589 78.0591C61.8328 65.6456 69.77 56.3841 73.0602 54.1256C76.846 51.5097 80.9162 52.4358 84.4989 56.7335L100.268 75.6382L101.754 77.2061C101.817 77.2784 101.851 77.3707 101.851 77.4661C101.851 77.5615 101.817 77.6538 101.754 77.7261L86.9118 97.1669C86.8778 97.2111 86.8349 97.2477 86.786 97.2743C86.737 97.3009 86.683 97.3169 86.6274 97.3213H86.6112ZM77.3741 53.4513C75.9829 53.4819 74.6351 53.9415 73.5152 54.7674C69.575 57.4809 63.287 66.653 68.9819 77.6692C71.996 83.4941 84.3771 94.4129 86.5543 96.3058L100.926 77.4823L99.6747 76.1581L83.8734 57.2534C82.281 55.3443 80.0388 53.4757 77.3741 53.4757V53.4513Z" fill="#0C071C"/>
<path d="M121.545 79.1478C121.545 79.1478 120.407 69.8782 117.604 63.1271C114.802 56.376 113.291 54.4587 113.291 54.4587C118.057 56.3447 122.321 59.3122 125.745 63.1271C130.887 69.1714 134.681 73.6884 134.681 73.6884L121.545 79.1478Z" fill="#0C071C"/>
<path d="M121.545 79.5539C121.473 79.5524 121.403 79.5328 121.342 79.497C121.287 79.4656 121.24 79.4222 121.205 79.3701C121.17 79.318 121.147 79.2586 121.138 79.1964C121.138 79.0989 119.977 69.9025 117.231 63.2895C114.485 56.6765 112.982 54.6942 112.974 54.6942C112.921 54.6239 112.892 54.5384 112.892 54.4505C112.892 54.3626 112.921 54.2771 112.974 54.2068C113.024 54.1347 113.097 54.0813 113.18 54.0549C113.264 54.0284 113.354 54.0304 113.437 54.0605C118.266 55.9798 122.586 58.988 126.062 62.8508C131.147 68.822 134.998 73.412 134.998 73.412C135.039 73.4615 135.067 73.5197 135.081 73.582C135.096 73.6443 135.095 73.7091 135.08 73.7713C135.065 73.8334 135.036 73.8913 134.995 73.9403C134.954 73.9893 134.902 74.0282 134.844 74.0539L121.691 79.4807C121.646 79.5125 121.597 79.5372 121.545 79.5539ZM114.339 55.3279C115.716 57.7944 116.932 60.3481 117.978 62.9726C120.415 68.7732 121.585 76.4992 121.878 78.5708L133.999 73.5502C132.943 72.2909 129.604 68.3183 125.412 63.3951C122.331 59.9552 118.557 57.206 114.339 55.3279Z" fill="#0C071C"/>
<path d="M77.3416 168.797C77.2373 168.795 77.1374 168.754 77.0621 168.681C76.9868 168.609 76.9416 168.511 76.9354 168.407C76.4642 157.212 79.9413 138.145 79.9738 137.95C79.9955 137.845 80.0565 137.753 80.1443 137.693C80.2321 137.632 80.3397 137.608 80.445 137.625C80.5504 137.644 80.6437 137.705 80.7046 137.793C80.7655 137.882 80.789 137.99 80.77 138.096C80.77 138.291 77.2848 157.269 77.7478 168.374C77.7511 168.427 77.7438 168.48 77.7263 168.53C77.7088 168.58 77.6814 168.626 77.6458 168.666C77.6103 168.705 77.5672 168.737 77.5191 168.759C77.4711 168.782 77.419 168.795 77.366 168.797H77.3416Z" fill="white"/>
<path d="M106.475 169.999H106.434C106.38 169.994 106.329 169.978 106.281 169.953C106.234 169.928 106.192 169.894 106.158 169.852C106.124 169.81 106.099 169.763 106.083 169.711C106.068 169.66 106.063 169.606 106.068 169.552C106.068 169.479 106.767 162.558 107.498 156.27C107.514 156.163 107.57 156.067 107.655 156.001C107.739 155.934 107.846 155.903 107.953 155.912C108.06 155.924 108.157 155.978 108.224 156.062C108.291 156.146 108.322 156.252 108.311 156.359C107.579 162.639 106.881 169.56 106.873 169.634C106.864 169.733 106.819 169.827 106.745 169.894C106.671 169.962 106.575 170 106.475 169.999Z" fill="white"/>
</svg>
