<svg width="98" height="34" viewBox="0 0 98 34" fill="none" xmlns="http://www.w3.org/2000/svg">
<path d="M41.808 16.88C41.808 18.104 40.872 18.368 38.808 18.752C35.64 19.352 33.576 20.072 33.576 22.856C33.576 24.92 35.136 26.336 37.608 26.336C39.624 26.336 40.992 25.616 41.76 24.464H41.808C42.144 25.808 42.84 26.12 43.992 26.12C44.352 26.12 44.616 26.096 45.12 25.928V24.584C43.896 24.728 43.728 24.2 43.728 23.24V17.288C43.728 14.336 41.64 13.424 39.312 13.424C35.76 13.424 34.296 15.2 34.176 17.552H36.096C36.216 15.776 36.984 15.104 39.312 15.104C41.28 15.104 41.808 15.92 41.808 16.88ZM37.8 24.656C36.216 24.656 35.496 23.96 35.496 22.76C35.496 21.296 36.6 20.696 38.976 20.192C40.272 19.928 41.448 19.592 41.808 19.232V21.272C41.808 23.624 40.08 24.656 37.8 24.656ZM52.3624 13.424C50.3944 13.424 49.2424 14.288 48.5224 15.344H48.4744V8.84H46.5544V26H48.4744V24.488H48.5224C49.2424 25.424 50.3944 26.336 52.3624 26.336C55.4344 26.336 57.8824 23.912 57.8824 19.88C57.8824 15.848 55.4344 13.424 52.3624 13.424ZM52.1704 24.656C49.8904 24.656 48.4744 22.76 48.4744 19.88C48.4744 17 49.8904 15.104 52.1704 15.104C54.6904 15.104 55.9624 17.48 55.9624 19.88C55.9624 22.28 54.6904 24.656 52.1704 24.656ZM65.124 26.336C61.38 26.336 59.124 23.696 59.124 19.88C59.124 16.064 61.38 13.424 65.124 13.424C68.844 13.424 71.1 16.064 71.1 19.88C71.1 23.696 68.844 26.336 65.124 26.336ZM65.124 24.656C67.86 24.656 69.18 22.496 69.18 19.88C69.18 17.264 67.86 15.104 65.124 15.104C62.364 15.104 61.044 17.264 61.044 19.88C61.044 22.496 62.364 24.656 65.124 24.656ZM81.7508 8.84V15.344H81.7028C80.9828 14.288 79.8308 13.424 77.8628 13.424C74.7908 13.424 72.3428 15.848 72.3428 19.88C72.3428 23.912 74.7908 26.336 77.8628 26.336C79.8308 26.336 80.9828 25.424 81.7028 24.488H81.7508V26H83.6708V8.84H81.7508ZM78.0547 24.656C75.5348 24.656 74.2628 22.28 74.2628 19.88C74.2628 17.48 75.5348 15.104 78.0547 15.104C80.3348 15.104 81.7508 17 81.7508 19.88C81.7508 22.76 80.3348 24.656 78.0547 24.656ZM91.5124 24.656C88.8484 24.656 87.5284 22.592 87.5284 20.384H97.2004C97.2004 16.04 95.3284 13.424 91.4884 13.424C87.9124 13.424 85.6084 15.8 85.6084 19.88C85.6084 23.72 87.8644 26.336 91.5844 26.336C94.6324 26.336 96.3844 24.512 97.0084 22.232H95.0884C94.8724 23.072 93.9604 24.656 91.5124 24.656ZM91.4884 15.104C93.7924 15.104 95.2804 16.736 95.2804 18.704H87.5284C87.5284 16.736 89.1844 15.104 91.4884 15.104Z" fill="#0C071C"/>
<path d="M23.6519 13.3276L26.9664 16.5294C26.9822 16.5446 26.993 16.5641 26.9976 16.5855C27.0022 16.6069 27.0002 16.6292 26.992 16.6495C26.9838 16.6697 26.9697 16.6871 26.9515 16.6993C26.9334 16.7115 26.912 16.718 26.8901 16.718H23.6519V29H17.5099V21.1053H10.4905V29H4.34849V16.7193H1.1099C1.08802 16.7193 1.06662 16.7128 1.04846 16.7006C1.03031 16.6884 1.01622 16.6711 1.00801 16.6508C0.9998 16.6305 0.997847 16.6082 1.0024 16.5868C1.00696 16.5654 1.01781 16.5459 1.03356 16.5307L14.0002 4L19.7035 9.51184V7.07018H23.6519V13.3276Z" fill="#CEFF1A" stroke="#0C071C" stroke-miterlimit="10" stroke-linecap="round" stroke-linejoin="round"/>
</svg>
